<?xml version="1.0" encoding="UTF-8" standalone="no"?>
<!-- Created with Inkscape (http://www.inkscape.org/) -->

<svg
   version="1.1"
   id="svg5516"
   width="409.60001"
   height="409.60001"
   viewBox="0 0 409.60001 409.60001"
   sodipodi:docname="call-iconl.svg"
   inkscape:export-filename="call.svg"
   inkscape:export-xdpi="96"
   inkscape:export-ydpi="96"
   inkscape:version="1.2.1 (9c6d41e410, 2022-07-14)"
   xmlns:inkscape="http://www.inkscape.org/namespaces/inkscape"
   xmlns:sodipodi="http://sodipodi.sourceforge.net/DTD/sodipodi-0.dtd"
   xmlns="http://www.w3.org/2000/svg"
   xmlns:svg="http://www.w3.org/2000/svg">
  <defs
     id="defs5520" />
  <sodipodi:namedview
     id="namedview5518"
     pagecolor="#ffffff"
     bordercolor="#000000"
     borderopacity="0.25"
     inkscape:showpageshadow="2"
     inkscape:pageopacity="0.0"
     inkscape:pagecheckerboard="0"
     inkscape:deskcolor="#d1d1d1"
     showgrid="false"
     inkscape:zoom="1.3914259"
     inkscape:cx="99.897521"
     inkscape:cy="216.32485"
     inkscape:window-width="1920"
     inkscape:window-height="1009"
     inkscape:window-x="-8"
     inkscape:window-y="-8"
     inkscape:window-maximized="1"
     inkscape:current-layer="g5522" />
  <g
     inkscape:groupmode="layer"
     inkscape:label="Image"
     id="g5522">
    <path
       id="path6739"
       style="fill:#000000;fill-opacity:0.73;stroke:#000000;stroke-width:1.86134;stroke-opacity:0"
       d="M 204.82586,4.7426271 A 197.2083,199.36438 0 0 0 7.6168735,204.10786 197.2083,199.36438 0 0 0 204.82586,403.47114 197.2083,199.36438 0 0 0 402.03485,204.10786 197.2083,199.36438 0 0 0 204.82586,4.7426271 Z M 129.97235,83.223095 c 26.34197,0.007 28.48944,0.160337 32.64648,2.333985 2.61691,1.368338 6.4285,4.798217 7.90234,7.109375 1.84682,2.896004 2.55924,6.147414 2.9375,13.417965 0.65588,12.60677 2.28009,22.07775 5.72461,33.38868 2.31077,7.58795 2.68272,10.03377 2.01758,13.26367 -0.85388,4.14641 -2.75951,6.91828 -14.62109,21.26758 -6.2383,7.54662 -11.45325,13.9836 -11.58789,14.30273 -0.32352,0.76683 4.99388,9.48253 9.94336,16.29883 14.24424,19.61685 31.04623,33.89239 54.16406,46.02344 5.02123,2.63487 6.55657,3.24886 7.20117,2.87695 0.45059,-0.25996 7.41111,-5.07557 15.46875,-10.70117 8.05764,-5.62561 15.96385,-10.84342 17.57031,-11.59571 2.47304,-1.15811 3.61505,-1.39305 7.44922,-1.5332 4.08559,-0.14933 5.20969,0.0127 11.48242,1.6543 12.79907,3.3494 22.27886,4.74907 37.49415,5.53515 5.16544,0.26687 9.01361,0.69272 10.4121,1.1543 7.1436,2.35779 12.0183,7.59009 13.42188,14.40625 0.66315,3.22044 0.66318,46.19507 0,49.4668 -1.54954,7.6466 -8.00352,13.57667 -16.36524,15.03711 -2.96802,0.51842 -9.20807,0.50624 -18.39453,-0.0371 -47.4725,-2.80764 -92.78899,-18.8548 -130.10742,-46.07227 -17.14985,-12.5079 -33.12813,-28.02887 -45.76562,-44.45312 C 106.40245,197.0424 92.561671,164.12281 87.593436,127.95747 86.326267,118.73335 85.57172,103.05294 86.220389,99.447709 87.699428,91.227365 93.998918,85.197012 102.695,83.678173 c 1.55368,-0.271369 12.76978,-0.459058 27.27735,-0.455078 z" />
  </g>
</svg>
