<?xml version="1.0" encoding="UTF-8" standalone="no"?>
<!-- Generator: Adobe Illustrator 19.0.0, SVG Export Plug-In . SVG Version: 6.00 Build 0)  -->

<svg
   version="1.1"
   id="Capa_1"
   x="0px"
   y="0px"
   viewBox="0 0 70.7944 70.8879"
   xml:space="preserve"
   sodipodi:docname="close-icon.svg"
   width="234.7944"
   height="234.8879"
   xmlns:inkscape="http://www.inkscape.org/namespaces/inkscape"
   xmlns:sodipodi="http://sodipodi.sourceforge.net/DTD/sodipodi-0.dtd"
   xmlns="http://www.w3.org/2000/svg"
   xmlns:svg="http://www.w3.org/2000/svg"><defs
   id="defs7" /><sodipodi:namedview
   id="namedview5"
   pagecolor="#ffffff"
   bordercolor="#000000"
   borderopacity="0.25"
   inkscape:showpageshadow="2"
   inkscape:pageopacity="0.0"
   inkscape:pagecheckerboard="0"
   inkscape:deskcolor="#d1d1d1"
   showgrid="false" />
	
<path
   id="path342"
   style="fill:#ffffff;fill-opacity:1;stroke:#000000;stroke-width:1.32668;stroke-opacity:0"
   d="M 43.395021,16.500464 A 23.776606,23.776606 0 0 0 19.619631,40.277808 23.776606,23.776606 0 0 0 43.395021,64.055151 23.776606,23.776606 0 0 0 67.172365,40.277808 23.776606,23.776606 0 0 0 43.395021,16.500464 Z M 32.461427,27.32273 c 0.422406,0 0.845455,0.16186 1.167969,0.484374 L 44.012209,38.189917 54.395021,27.807104 c 0.645029,-0.645028 1.688956,-0.645028 2.333985,0 0.645029,0.644479 0.645029,1.689507 0,2.333985 l -10.382813,10.382812 10.382813,10.38086 c 0.645029,0.644478 0.645029,1.691459 0,2.335937 -0.322515,0.322515 -0.745839,0.482422 -1.167969,0.482422 -0.422131,0 -0.843502,-0.159907 -1.166016,-0.482422 L 44.012209,42.857886 33.629396,53.240698 c -0.322514,0.322515 -0.745837,0.482422 -1.167969,0.482422 -0.42213,0 -0.8435,-0.160457 -1.166015,-0.482422 -0.645028,-0.644479 -0.645028,-1.689507 0,-2.333984 L 41.678224,40.523901 31.295412,30.141089 c -0.645028,-0.644478 -0.645028,-1.689506 0,-2.333985 0.322515,-0.322514 0.74361,-0.484374 1.166015,-0.484374 z" /></svg>
