<?xml version="1.0" encoding="UTF-8" standalone="no"?><!DOCTYPE svg PUBLIC "-//W3C//DTD SVG 1.1//EN" "http://www.w3.org/Graphics/SVG/1.1/DTD/svg11.dtd"><svg viewBox="0 0 512.01 512.01" xmlns="http://www.w3.org/2000/svg" xmlns:xlink="http://www.w3.org/1999/xlink"><style>:root>svg{display:none}:root>svg:target{display:block}</style><svg viewBox="0 0 512 512" id="adenoids-icon-dark" xmlns="http://www.w3.org/2000/svg"><path style="fill:#fff;fill-opacity:.732057;stroke:#000;stroke-width:1.04471;stroke-opacity:0" d="M256.72 2.643A254.584 254.584 0 0 0 2.138 257.227 254.584 254.584 0 0 0 256.72 511.81a254.584 254.584 0 0 0 254.584-254.584A254.584 254.584 0 0 0 256.72 2.643zm6.37 82.564c5.609.076 11.139 2.584 15.748 7.512 4.53 4.843 6.25 9.263 6.244 16.045-.004 4.279-2.926 11.611-6.277 15.754-1.222 1.51-1.623 3.286-1.393 6.177l.324 4.059 7.205 1.182c15.684 2.571 37.766 11.82 50.721 21.248l5.895 4.289 3.271-3.176c2.089-2.028 3.272-4.065 3.272-5.633 0-1.35.872-4.786 1.937-7.633 4.606-12.31 18.562-17.994 30.512-12.43 9.597 4.47 14.95 14.84 12.746 24.692-2.14 9.565-8.17 15.43-18.404 17.906-4.937 1.194-7.334 2.356-9.625 4.668-1.678 1.693-2.667 3.316-2.198 3.606 1.572.971 9.222 13.21 13.19 21.103 5.07 10.085 9.962 24.844 11.486 34.66l1.205 7.758h4.313c3.162 0 5.173-.643 7.549-2.416 5.177-3.862 9.423-5.34 15.464-5.385 12.588-.092 22.126 9.664 22.077 22.58-.034 8.834-4.447 16.073-12.192 19.997-7.866 3.984-15.64 3.213-24.21-2.4-3.688-2.416-5.944-3.225-8.987-3.225H388.9l-1.195 7.287c-2.591 15.798-11.815 37.82-21.309 50.867l-4.335 5.959 3.128 3.096c2.188 2.164 4.623 3.41 8.096 4.142 10.38 2.19 16.876 7.624 19.44 16.258 1.803 6.073 1.801 6.775-.051 13.072-2.702 9.184-11.815 15.922-21.535 15.922-9.346 0-17.825-5.882-21.102-14.64-1.065-2.848-1.937-6.27-1.937-7.604 0-2.653-6.955-10.47-7.922-8.904-.98 1.586-13.108 9.198-20.8 13.054-10.627 5.329-20.037 8.579-31.831 10.998l-10.242 2.102v4.369c0 3.168.67 5.338 2.441 7.902 4.306 6.236 5.613 10.516 5.113 16.743-.535 6.672-2.065 9.968-6.83 14.716-5.715 5.696-14.884 7.752-23.017 5.162-4.754-1.513-12.76-9.668-14.016-14.277-2.207-8.096-.921-14.765 4.313-22.344 1.77-2.564 2.441-4.734 2.441-7.902v-4.37l-10.242-2.1c-5.634-1.156-13.416-3.253-17.295-4.66-9.479-3.441-24.268-11.079-30.893-15.956l-5.402-3.978-3.48 3.523c-2.195 2.22-3.481 4.415-3.481 5.936 0 1.326-.872 4.742-1.937 7.59-3.277 8.758-11.756 14.64-21.102 14.64-9.72 0-18.836-6.738-21.537-15.922-1.852-6.297-1.855-6.999-.05-13.072 2.563-8.634 9.061-14.068 19.44-16.258 3.47-.732 5.91-1.98 8.09-4.137l3.121-3.088-4.185-5.683c-9.348-12.699-18.862-35.392-21.447-51.156l-1.196-7.287h-4.062c-3.043 0-5.298.809-8.985 3.224-8.57 5.614-16.346 6.385-24.212 2.4-7.745-3.923-12.158-11.162-12.192-19.996-.075-19.747 21.112-29.451 37.541-17.195 2.376 1.773 4.388 2.416 7.55 2.416h4.311l1.206-7.758c2.444-15.737 11.96-38.683 21.306-51.38l4.004-5.44-2.941-2.814c-2.066-1.977-4.898-3.287-9.514-4.403-10.235-2.473-16.266-8.34-18.406-17.906-.93-4.152-.857-5.814.441-10.281 4.873-16.763 25.276-22.032 37.94-9.8 3.249 3.14 6.816 11.289 6.816 15.575 0 1.722 1.078 3.597 3.244 5.64l3.244 3.06 5.639-4.151c12.627-9.296 35.37-18.833 51.03-21.4l7.206-1.182.323-4.059c.23-2.891-.17-4.668-1.391-6.177-3.351-4.143-6.273-11.475-6.277-15.754-.007-7.38 1.668-11.387 6.892-16.477 4.926-4.799 10.614-7.156 16.223-7.08zm-156.983 87.941c3.85.066 7.7.772 10.198 2.098 14.855 7.885 17.897 26.384 6.254 38.018-6.098 6.093-14.219 8.474-22.24 6.521-6.502-1.583-12.625-6.615-16.092-13.226-2.393-4.563-2.366-15.165.05-20.092 2.19-4.464 7.033-9.276 11.641-11.569 2.493-1.24 6.34-1.815 10.19-1.75zm186.338 10.842c-6.545 0-9.626 7.211-5.04 11.797 2.87 2.87 6.733 2.976 9.62.264 4.602-4.323 1.663-12.06-4.58-12.06zm-63.886 4.88c-18.654.928-35.707 15.728-38.366 34.911-3.98 28.714 22.342 52.537 50.069 45.315 7.413-1.931 12.325-4.596 17.66-9.586 8.965-8.387 13.068-17.844 13.068-30.114 0-20.097-14.15-36.584-34.375-40.048a36.836 36.836 0 0 0-8.056-.479zm92.761 47.206c-4.315-.006-8.628.712-11.347 2.156-5.172 2.747-11.064 9.355-13.102 14.692-2.174 5.693-1.612 15.465 1.21 20.99 2.634 5.16 9.798 11.335 15.14 13.05 5.46 1.754 13.564 1.247 19.084-1.194 13.328-5.896 19.119-22.046 12.648-35.272-2.77-5.662-6.052-8.935-12.26-12.23-2.737-1.453-7.057-2.185-11.373-2.192zm-135.33 44.735c-1.913-.112-3.873.516-5.273 1.916-2.8 2.8-2.507 7.833.597 10.275 3.287 2.585 6.5 2.463 9.32-.357 2.822-2.821 2.946-6.034.36-9.32-1.22-1.553-3.09-2.403-5.004-2.514zm53.617 10.377a22.432 22.432 0 0 0-13.793 5.425c-7.09 6.07-9.748 14.955-7.138 23.871 4.136 14.134 19.763 20.903 32.678 14.157 9.58-5.005 14.44-15.093 12.166-25.256-2.609-11.656-13.253-18.627-23.913-18.197zm173.846 6.132c7.347 0 9.091.33 13.225 2.504 5.691 2.994 11.163 8.801 13.908 14.76 1.523 3.306 1.998 6.147 1.98 11.87-.02 6.729-.358 8.146-3.203 13.442-1.748 3.256-4.768 7.178-6.71 8.717-7.691 6.091-18.077 8.548-26.319 6.227-21.996-6.196-29.603-31.773-14.44-48.557 1.965-2.175 5.716-5.081 8.335-6.459 4.133-2.174 5.877-2.504 13.224-2.504zM286.898 315.64c-6.79 0-9.734 8.127-4.515 12.46 2.72 2.26 5.886 2.062 8.93-.556 5.155-4.435 2.386-11.904-4.415-11.904zm33.932 90.285c3.182 0 8.58 2.091 11.295 4.375 10.938 9.203 7.197 27.531-6.389 31.305-4.519 1.255-6.457 1.185-10.89-.395-4.451-1.587-8.86-5.603-10.588-9.643-1.65-3.855-1.662-10.733-.026-14.65 2.333-5.583 10.502-10.992 16.598-10.992z"/></svg><svg viewBox="0 0 512 512" id="adenoids-icon-light" xmlns="http://www.w3.org/2000/svg"><path style="fill:#000;fill-opacity:.732057;stroke:#000;stroke-width:1.04471;stroke-opacity:0" d="M256.72 2.643A254.584 254.584 0 0 0 2.138 257.227 254.584 254.584 0 0 0 256.72 511.81a254.584 254.584 0 0 0 254.584-254.584A254.584 254.584 0 0 0 256.72 2.643zm6.37 82.564c5.609.076 11.139 2.584 15.748 7.512 4.53 4.843 6.25 9.263 6.244 16.045-.004 4.279-2.926 11.611-6.277 15.754-1.222 1.51-1.623 3.286-1.393 6.177l.324 4.059 7.205 1.182c15.684 2.571 37.766 11.82 50.721 21.248l5.895 4.289 3.271-3.176c2.089-2.028 3.272-4.065 3.272-5.633 0-1.35.872-4.786 1.937-7.633 4.606-12.31 18.562-17.994 30.512-12.43 9.597 4.47 14.95 14.84 12.746 24.692-2.14 9.565-8.17 15.43-18.404 17.906-4.937 1.194-7.334 2.356-9.625 4.668-1.678 1.693-2.667 3.316-2.198 3.606 1.572.971 9.222 13.21 13.19 21.103 5.07 10.085 9.962 24.844 11.486 34.66l1.205 7.758h4.313c3.162 0 5.173-.643 7.549-2.416 5.177-3.862 9.423-5.34 15.464-5.385 12.588-.092 22.126 9.664 22.077 22.58-.034 8.834-4.447 16.073-12.192 19.997-7.866 3.984-15.64 3.213-24.21-2.4-3.688-2.416-5.944-3.225-8.987-3.225H388.9l-1.195 7.287c-2.591 15.798-11.815 37.82-21.309 50.867l-4.335 5.959 3.128 3.096c2.188 2.164 4.623 3.41 8.096 4.142 10.38 2.19 16.876 7.624 19.44 16.258 1.803 6.073 1.801 6.775-.051 13.072-2.702 9.184-11.815 15.922-21.535 15.922-9.346 0-17.825-5.882-21.102-14.64-1.065-2.848-1.937-6.27-1.937-7.604 0-2.653-6.955-10.47-7.922-8.904-.98 1.586-13.108 9.198-20.8 13.054-10.627 5.329-20.037 8.579-31.831 10.998l-10.242 2.102v4.369c0 3.168.67 5.338 2.441 7.902 4.306 6.236 5.613 10.516 5.113 16.743-.535 6.672-2.065 9.968-6.83 14.716-5.715 5.696-14.884 7.752-23.017 5.162-4.754-1.513-12.76-9.668-14.016-14.277-2.207-8.096-.921-14.765 4.313-22.344 1.77-2.564 2.441-4.734 2.441-7.902v-4.37l-10.242-2.1c-5.634-1.156-13.416-3.253-17.295-4.66-9.479-3.441-24.268-11.079-30.893-15.956l-5.402-3.978-3.48 3.523c-2.195 2.22-3.481 4.415-3.481 5.936 0 1.326-.872 4.742-1.937 7.59-3.277 8.758-11.756 14.64-21.102 14.64-9.72 0-18.836-6.738-21.537-15.922-1.852-6.297-1.855-6.999-.05-13.072 2.563-8.634 9.061-14.068 19.44-16.258 3.47-.732 5.91-1.98 8.09-4.137l3.121-3.088-4.185-5.683c-9.348-12.699-18.862-35.392-21.447-51.156l-1.196-7.287h-4.062c-3.043 0-5.298.809-8.985 3.224-8.57 5.614-16.346 6.385-24.212 2.4-7.745-3.923-12.158-11.162-12.192-19.996-.075-19.747 21.112-29.451 37.541-17.195 2.376 1.773 4.388 2.416 7.55 2.416h4.311l1.206-7.758c2.444-15.737 11.96-38.683 21.306-51.38l4.004-5.44-2.941-2.814c-2.066-1.977-4.898-3.287-9.514-4.403-10.235-2.473-16.266-8.34-18.406-17.906-.93-4.152-.857-5.814.441-10.281 4.873-16.763 25.276-22.032 37.94-9.8 3.249 3.14 6.816 11.289 6.816 15.575 0 1.722 1.078 3.597 3.244 5.64l3.244 3.06 5.639-4.151c12.627-9.296 35.37-18.833 51.03-21.4l7.206-1.182.323-4.059c.23-2.891-.17-4.668-1.391-6.177-3.351-4.143-6.273-11.475-6.277-15.754-.007-7.38 1.668-11.387 6.892-16.477 4.926-4.799 10.614-7.156 16.223-7.08zm-156.983 87.941c3.85.066 7.7.772 10.198 2.098 14.855 7.885 17.897 26.384 6.254 38.018-6.098 6.093-14.219 8.474-22.24 6.521-6.502-1.583-12.625-6.615-16.092-13.226-2.393-4.563-2.366-15.165.05-20.092 2.19-4.464 7.033-9.276 11.641-11.569 2.493-1.24 6.34-1.815 10.19-1.75zm186.338 10.842c-6.545 0-9.626 7.211-5.04 11.797 2.87 2.87 6.733 2.976 9.62.264 4.602-4.323 1.663-12.06-4.58-12.06zm-63.886 4.88c-18.654.928-35.707 15.728-38.366 34.911-3.98 28.714 22.342 52.537 50.069 45.315 7.413-1.931 12.325-4.596 17.66-9.586 8.965-8.387 13.068-17.844 13.068-30.114 0-20.097-14.15-36.584-34.375-40.048a36.836 36.836 0 0 0-8.056-.479zm92.761 47.206c-4.315-.006-8.628.712-11.347 2.156-5.172 2.747-11.064 9.355-13.102 14.692-2.174 5.693-1.612 15.465 1.21 20.99 2.634 5.16 9.798 11.335 15.14 13.05 5.46 1.754 13.564 1.247 19.084-1.194 13.328-5.896 19.119-22.046 12.648-35.272-2.77-5.662-6.052-8.935-12.26-12.23-2.737-1.453-7.057-2.185-11.373-2.192zm-135.33 44.735c-1.913-.112-3.873.516-5.273 1.916-2.8 2.8-2.507 7.833.597 10.275 3.287 2.585 6.5 2.463 9.32-.357 2.822-2.821 2.946-6.034.36-9.32-1.22-1.553-3.09-2.403-5.004-2.514zm53.617 10.377a22.432 22.432 0 0 0-13.793 5.425c-7.09 6.07-9.748 14.955-7.138 23.871 4.136 14.134 19.763 20.903 32.678 14.157 9.58-5.005 14.44-15.093 12.166-25.256-2.609-11.656-13.253-18.627-23.913-18.197zm173.846 6.132c7.347 0 9.091.33 13.225 2.504 5.691 2.994 11.163 8.801 13.908 14.76 1.523 3.306 1.998 6.147 1.98 11.87-.02 6.729-.358 8.146-3.203 13.442-1.748 3.256-4.768 7.178-6.71 8.717-7.691 6.091-18.077 8.548-26.319 6.227-21.996-6.196-29.603-31.773-14.44-48.557 1.965-2.175 5.716-5.081 8.335-6.459 4.133-2.174 5.877-2.504 13.224-2.504zM286.898 315.64c-6.79 0-9.734 8.127-4.515 12.46 2.72 2.26 5.886 2.062 8.93-.556 5.155-4.435 2.386-11.904-4.415-11.904zm33.932 90.285c3.182 0 8.58 2.091 11.295 4.375 10.938 9.203 7.197 27.531-6.389 31.305-4.519 1.255-6.457 1.185-10.89-.395-4.451-1.587-8.86-5.603-10.588-9.643-1.65-3.855-1.662-10.733-.026-14.65 2.333-5.583 10.502-10.992 16.598-10.992z"/></svg><svg viewBox="0 0 512 459.089" id="alert-icon-dark" xmlns="http://www.w3.org/2000/svg"><path style="fill:#fff;fill-opacity:.73" d="M52.42 484.025c-24.21-3.567-43.339-21.126-49.575-45.508-1.084-4.24-1.972-10.491-1.972-13.89 0-7.107 2.886-19.358 6.046-25.67C8.11 396.575 53.7 317.252 108.23 222.683c94.273-163.497 99.487-172.294 106.143-179.07 7.795-7.934 13.409-11.42 24.5-15.214 10.686-3.654 25.112-3.623 36.5.081 9.937 3.232 18.835 8.984 25.719 16.625 3.997 4.438 29.386 47.642 104.422 177.693 54.527 94.506 100.118 173.777 101.312 176.16 3.16 6.306 6.047 18.558 6.047 25.669 0 20.83-13.423 43.238-31.592 52.736-15.148 7.918 5.31 7.233-220.908 7.395-111.443.079-204.668-.25-207.952-.733zm411.953-31.698c6.32-2.906 11.925-8.285 15.317-14.7 2.223-4.203 2.645-6.276 2.643-13 0-7.034-.381-8.726-3.148-14-1.731-3.3-46.795-81.6-100.14-174-59.908-103.765-98.462-169.54-100.833-172.03-5.886-6.177-12.315-8.841-21.339-8.841-9.022 0-15.45 2.663-21.34 8.842-2.376 2.491-40.846 68.125-100.832 172.029-53.345 92.4-98.408 170.7-100.139 174-2.766 5.273-3.148 6.969-3.15 14-.004 6.44.452 8.876 2.335 12.5 4.508 8.675 12.114 14.843 20.86 16.918 2.158.511 89.434.826 204.266.737l200.5-.155zm-214.452-58.505c-7.802-2.487-14.086-12.91-12.75-21.146 1.422-8.758 6.512-14.436 14.97-16.699 14.75-3.945 27.883 9.824 23.682 24.828-3.015 10.771-14.633 16.61-25.902 13.017zm-8.048-143.695v-75h30v150h-30z" transform="translate(-.873 -25.68)"/></svg><svg viewBox="0 0 512 459.089" id="alert-icon-light" xmlns="http://www.w3.org/2000/svg"><path style="fill:#000;fill-opacity:.73" d="M52.42 484.025c-24.21-3.567-43.339-21.126-49.575-45.508-1.084-4.24-1.972-10.491-1.972-13.89 0-7.107 2.886-19.358 6.046-25.67C8.11 396.575 53.7 317.252 108.23 222.683c94.273-163.497 99.487-172.294 106.143-179.07 7.795-7.934 13.409-11.42 24.5-15.214 10.686-3.654 25.112-3.623 36.5.081 9.937 3.232 18.835 8.984 25.719 16.625 3.997 4.438 29.386 47.642 104.422 177.693 54.527 94.506 100.118 173.777 101.312 176.16 3.16 6.306 6.047 18.558 6.047 25.669 0 20.83-13.423 43.238-31.592 52.736-15.148 7.918 5.31 7.233-220.908 7.395-111.443.079-204.668-.25-207.952-.733zm411.953-31.698c6.32-2.906 11.925-8.285 15.317-14.7 2.223-4.203 2.645-6.276 2.643-13 0-7.034-.381-8.726-3.148-14-1.731-3.3-46.795-81.6-100.14-174-59.908-103.765-98.462-169.54-100.833-172.03-5.886-6.177-12.315-8.841-21.339-8.841-9.022 0-15.45 2.663-21.34 8.842-2.376 2.491-40.846 68.125-100.832 172.029-53.345 92.4-98.408 170.7-100.139 174-2.766 5.273-3.148 6.969-3.15 14-.004 6.44.452 8.876 2.335 12.5 4.508 8.675 12.114 14.843 20.86 16.918 2.158.511 89.434.826 204.266.737l200.5-.155zm-214.452-58.505c-7.802-2.487-14.086-12.91-12.75-21.146 1.422-8.758 6.512-14.436 14.97-16.699 14.75-3.945 27.883 9.824 23.682 24.828-3.015 10.771-14.633 16.61-25.902 13.017zm-8.048-143.695v-75h30v150h-30z" transform="translate(-.873 -25.68)"/></svg><svg fill="none" viewBox="0 0 24 24" id="arrow-top-dark" xmlns="http://www.w3.org/2000/svg"><path d="M12 17.5v-11m0 0-4 4.588M12 6.5l4 4.588" stroke="#363853" stroke-width="1.5" stroke-linecap="round" stroke-linejoin="round" style="stroke:#fff;stroke-opacity:.73000002"/></svg><svg fill="none" viewBox="0 0 24 24" id="arrow-top-light" xmlns="http://www.w3.org/2000/svg"><path d="M12 17.5v-11m0 0-4 4.588M12 6.5l4 4.588" stroke="#363853" stroke-width="1.5" stroke-linecap="round" stroke-linejoin="round" style="stroke:#000;stroke-opacity:.73000002"/></svg><svg viewBox="0 0 512 512" id="auto-theme-icon-dark" xmlns="http://www.w3.org/2000/svg"><path style="fill:#fff;fill-opacity:.73;stroke:#000;stroke-width:1.18113;stroke-opacity:0" d="M221.478-41.985A253.13 253.13 0 0 0-31.653 211.146a253.13 253.13 0 0 0 253.13 253.131 253.13 253.13 0 0 0 253.13-253.13 253.13 253.13 0 0 0-253.13-253.132zm1.465 67.69a16.141 16.141 0 0 1 10.852 4.031 17.1 17.1 0 0 1 2.825 3.197c.567.827.992 1.451 1.307 2.452.315 1 .518 2.375.643 4.705.248 4.658.177 13.13.033 30.039-.08 9.493-.128 16.545-.276 21.851-.073 2.653-.173 4.869-.314 6.737-.14 1.867-.323 3.385-.564 4.642-.241 1.257-.542 2.252-.916 3.072a7.003 7.003 0 0 1-1.366 2.024c-.542.557-1.175 1.027-1.918 1.496-.742.47-1.593.937-2.57 1.492-.894.508-1.83.91-2.791 1.21-.96.297-1.947.493-2.943.59-.997.098-2.002.098-3.002.003s-1.997-.285-2.971-.563a16.869 16.869 0 0 1-5.459-2.703 16.413 16.413 0 0 1-2.305-2.09 16.012 16.012 0 0 1-1.894-2.545c-.473-.787-.833-1.502-1.11-2.609-.276-1.107-.467-2.607-.6-4.969-.263-4.724-.29-12.895-.29-28.256 0-16.188.002-24.316.297-28.869.147-2.276.369-3.658.699-4.707.33-1.048.77-1.763 1.355-2.705a16.317 16.317 0 0 1 2.653-3.258 15.56 15.56 0 0 1 6.818-3.763 15.945 15.945 0 0 1 3.807-.504zM101.492 75.594c.459-.002.92.02 1.382.064.924.09 1.85.272 2.772.549.921.277 1.837.648 2.742 1.117.613.317 1.79 1.238 3.383 2.613s3.604 3.204 5.883 5.34c4.556 4.273 10.187 9.773 15.71 15.313 5.524 5.54 10.94 11.12 15.065 15.554 2.063 2.218 3.803 4.148 5.072 5.645 1.27 1.496 2.07 2.558 2.25 3.037a17.237 17.237 0 0 1 1.11 5.742c.019.958-.042 1.909-.18 2.842a16.776 16.776 0 0 1-.64 2.732c-.288.886-.65 1.742-1.08 2.557-.431.815-.931 1.59-1.497 2.312a14.705 14.705 0 0 1-1.89 2 14.203 14.203 0 0 1-2.262 1.622 17.15 17.15 0 0 1-3.195 1.42c-1.12.368-2.28.631-3.446.783a17.99 17.99 0 0 1-3.482.117 15.122 15.122 0 0 1-3.303-.574c-.61-.181-1.488-.69-2.684-1.57-1.195-.88-2.71-2.131-4.59-3.798-3.76-3.332-8.985-8.324-16.072-15.324-6.31-6.233-11.091-10.97-14.72-14.677-3.63-3.709-6.108-6.39-7.813-8.516-.852-1.063-1.512-1.987-2.025-2.832-.513-.845-.88-1.61-1.149-2.354a11.78 11.78 0 0 1-.556-2.23c-.119-.762-.186-1.562-.248-2.46-.163-2.32-.159-3.867.127-5.189.142-.66.355-1.266.654-1.88.298-.615.682-1.24 1.166-1.946a22.555 22.555 0 0 1 2.072-2.6 19.333 19.333 0 0 1 2.293-2.105 16.824 16.824 0 0 1 2.469-1.6c.848-.447 1.718-.809 2.605-1.081a14.089 14.089 0 0 1 4.077-.623zm244.195.947c.368.005.731.02 1.092.049 1.44.114 2.812.416 4.029.92 1.05.434 2.122 1.105 3.154 1.935 1.033.83 2.025 1.82 2.91 2.889a20.051 20.051 0 0 1 2.274 3.37c.609 1.152 1.046 2.307 1.248 3.384.186.991.323 1.895.375 2.765.052.87.02 1.705-.135 2.557-.154.852-.429 1.72-.861 2.658-.432.937-1.023 1.942-1.805 3.068-1.564 2.253-3.9 4.988-7.295 8.618s-7.85 8.155-13.652 13.99c-5.943 5.976-11.707 11.579-16.203 15.793-4.497 4.214-7.726 7.04-8.606 7.457-.88.417-2.169.796-3.537 1.07-1.368.275-2.816.445-4.012.444a15.218 15.218 0 0 1-3.69-.452 14.861 14.861 0 0 1-3.327-1.275 15.177 15.177 0 0 1-2.887-1.982 15.682 15.682 0 0 1-2.361-2.577 16.05 16.05 0 0 1-1.752-3.054 16.236 16.236 0 0 1-1.059-3.422 16.408 16.408 0 0 1-.283-3.674c.044-1.254.232-2.53.576-3.81.24-.895.628-1.804 1.33-2.926.703-1.122 1.721-2.455 3.227-4.2 3.01-3.488 7.968-8.617 16.232-16.962 10.805-10.911 21.373-21.217 23.485-22.905 1.114-.89 2.409-1.633 3.798-2.217a19.697 19.697 0 0 1 4.375-1.255 18.946 18.946 0 0 1 3.36-.256zM221.96 125.625a87.622 87.622 0 0 1 13.356.916 85.316 85.316 0 0 1 13.137 2.99 84.632 84.632 0 0 1 12.658 5.107 88.726 88.726 0 0 1 21.346 14.988 90.56 90.56 0 0 1 11.395 13.13 91.492 91.492 0 0 1 4.731 7.379 92.545 92.545 0 0 1 4.04 7.859 93.808 93.808 0 0 1 3.308 8.299c.825 2.395 1.447 4.216 1.916 5.869.469 1.653.784 3.14.996 4.865.212 1.726.32 3.69.377 6.303.057 2.612.06 5.87.06 10.181 0 4.312-.004 7.57-.06 10.182-.056 2.612-.165 4.58-.377 6.305a30.973 30.973 0 0 1-.996 4.863c-.469 1.653-1.09 3.474-1.916 5.87a100.36 100.36 0 0 1-3.664 9.185 86.968 86.968 0 0 1-4.408 8.388 82.79 82.79 0 0 1-5.227 7.72 87.057 87.057 0 0 1-6.123 7.171c-3 3.158-6.007 5.992-9.084 8.543a86.421 86.421 0 0 1-4.676 3.62 80.102 80.102 0 0 1-9.861 6.074 83.655 83.655 0 0 1-5.281 2.515c-3.614 1.571-7.424 2.936-11.496 4.135-2.742.807-5.926 1.47-9.33 1.974-3.405.506-7.029.854-10.645 1.036a108.39 108.39 0 0 1-10.605.029c-3.38-.166-6.526-.51-9.217-1.045a94.263 94.263 0 0 1-7.77-1.887 92.22 92.22 0 0 1-7.445-2.496 90.71 90.71 0 0 1-7.1-3.074 88.594 88.594 0 0 1-18.963-12.396 87.015 87.015 0 0 1-14.947-16.533 86.562 86.562 0 0 1-10.27-19.872 87.243 87.243 0 0 1-3.92-14.707 89.297 89.297 0 0 1-1.009-7.703 91.057 91.057 0 0 1-.342-7.897c0-3.08.137-6.1.41-9.06.274-2.96.683-5.859 1.23-8.7a83.474 83.474 0 0 1 2.055-8.345 80.761 80.761 0 0 1 6.596-15.66 84.319 84.319 0 0 1 4.547-7.328 90.76 90.76 0 0 1 5.383-7.004 100.604 100.604 0 0 1 6.223-6.686 86.472 86.472 0 0 1 16.251-12.56 87.673 87.673 0 0 1 12.077-6.022 88.58 88.58 0 0 1 25.96-6.213c2.221-.187 4.45-.29 6.68-.308zm.854 31.886-2.75.018c-1.513.01-5.718.647-9.348 1.416a52.42 52.42 0 0 0-7.369 2.143 55.41 55.41 0 0 0-6.994 3.168 57.82 57.82 0 0 0-6.512 4.093 58.975 58.975 0 0 0-5.92 4.912 58.621 58.621 0 0 0-5.219 5.631 56.747 56.747 0 0 0-4.408 6.244 53.795 53.795 0 0 0-3.488 6.756 50.356 50.356 0 0 0-2.461 7.16c-.49 1.884-.858 4.164-1.103 6.64a80.354 80.354 0 0 0-.368 7.82c0 2.672.122 5.344.368 7.82.245 2.475.612 4.755 1.103 6.638a49.741 49.741 0 0 0 2.44 7.09 53.927 53.927 0 0 0 3.468 6.717 57.382 57.382 0 0 0 4.383 6.229 59.661 59.661 0 0 0 11.049 10.564 57.935 57.935 0 0 0 6.437 4.115 54.735 54.735 0 0 0 6.895 3.192 50.724 50.724 0 0 0 7.232 2.156c3.336.726 7.527 1.355 9.315 1.398l3.25.08v-112zm-143.926 39.5h32.572l3.625 2.483a17.896 17.896 0 0 1 3.127 2.748 19.3 19.3 0 0 1 2.444 3.365 17.405 17.405 0 0 1 1.591 3.69c.37 1.25.567 2.504.567 3.714 0 1.226-.221 2.53-.623 3.838a18.937 18.937 0 0 1-1.703 3.871 19.796 19.796 0 0 1-2.532 3.467c-.953 1.04-2 1.938-3.103 2.623-.857.533-1.567.939-2.62 1.248-1.052.31-2.447.524-4.673.678-4.452.308-12.23.375-27.246.467-8.525.052-16.565.009-22.653-.104-6.087-.112-10.222-.294-10.933-.517a16.087 16.087 0 0 1-2.46-1.002c-.789-.4-1.547-.863-2.265-1.38a18.05 18.05 0 0 1-3.777-3.673 17.184 17.184 0 0 1-2.504-4.537 15.276 15.276 0 0 1-.674-2.46 13.889 13.889 0 0 1-.234-2.519c0-1.225.223-2.528.625-3.837.402-1.31.983-2.624 1.703-3.872a19.786 19.786 0 0 1 2.53-3.466c.952-1.04 2.002-1.938 3.105-2.623.864-.538 1.564-.945 2.625-1.252 1.06-.307 2.484-.514 4.793-.655 4.617-.281 12.78-.295 28.693-.295zm287.926 1c15.874 0 24.02.014 28.629.295 2.304.141 3.725.348 4.785.655 1.06.307 1.76.714 2.625 1.252.91.565 1.748 1.215 2.512 1.931.763.717 1.45 1.501 2.058 2.336a17.08 17.08 0 0 1 2.649 5.485c.269.971.45 1.96.537 2.95.087.991.078 1.984-.028 2.96a13.885 13.885 0 0 1-.615 2.865 12.916 12.916 0 0 1-1.234 2.676c-.74 1.212-1.467 2.245-2.229 3.133a13.773 13.773 0 0 1-2.433 2.257 13.567 13.567 0 0 1-2.905 1.57c-1.077.432-2.28.782-3.65 1.083-1.322.29-5.48.515-11.064.67-5.585.155-12.595.24-19.622.254-7.026.014-14.07-.044-19.72-.176-5.65-.132-9.905-.339-11.358-.623a15.385 15.385 0 0 1-3.285-1.026 14.71 14.71 0 0 1-2.916-1.718 16.08 16.08 0 0 1-2.533-2.397 19.687 19.687 0 0 1-2.135-3.068 14.609 14.609 0 0 1-1.213-2.764 14.937 14.937 0 0 1-.619-2.896 15.507 15.507 0 0 1-.047-2.944 16 16 0 0 1 .5-2.902 16.282 16.282 0 0 1 2.557-5.346 15.902 15.902 0 0 1 4.473-4.16c.941-.585 1.656-1.025 2.705-1.355 1.048-.33 2.43-.552 4.707-.7 4.552-.295 12.68-.297 28.869-.297zm-25.922 68.463a63.063 63.063 0 0 1 63.064 63.063 63.063 63.063 0 0 1-63.064 63.064 63.063 63.063 0 0 1-63.063-63.064 63.063 63.063 0 0 1 63.063-63.063zm-199.71 12.924c1.14.05 2.25.22 3.321.5a15.29 15.29 0 0 1 5.83 2.97c.855.701 1.643 1.5 2.35 2.39.707.89 1.333 1.87 1.865 2.937.532 1.066.97 2.218 1.301 3.447.272 1.011.49 1.93.615 2.807.126.877.161 1.714.074 2.56a9.624 9.624 0 0 1-.662 2.62c-.366.917-.89 1.896-1.603 2.986-.713 1.09-1.615 2.293-2.74 3.658-1.126 1.366-2.475 2.894-4.08 4.637-3.212 3.486-7.45 7.83-12.981 13.437-5.543 5.62-11.084 11.052-15.543 15.276-4.46 4.223-7.838 7.238-9.06 8.025-1.634 1.052-3.053 1.768-4.493 2.22-1.439.454-2.898.643-4.61.643-1.441 0-2.826-.195-4.134-.556a15.423 15.423 0 0 1-3.676-1.553 15.991 15.991 0 0 1-3.109-2.375 16.412 16.412 0 0 1-2.434-3.021 16.208 16.208 0 0 1-1.648-3.495 15.44 15.44 0 0 1-.754-3.793 14.67 14.67 0 0 1 1.615-7.78c.318-.614 1.238-1.79 2.614-3.384 1.375-1.593 3.205-3.602 5.341-5.88 4.273-4.557 9.771-10.19 15.31-15.713 5.54-5.524 11.12-10.938 15.556-15.063 2.217-2.062 4.15-3.803 5.646-5.072 1.497-1.27 2.558-2.069 3.037-2.25a18.645 18.645 0 0 1 3.569-.965 16.897 16.897 0 0 1 3.484-.213zm189.515 10.963-23.35 74.623h17.17l4.576-17.74h22.777l4.579 17.74h17.853l-23.348-74.623h-20.257zm9.498 12.818h.459a714.7 714.7 0 0 1 2.976 12.131 266.83 266.83 0 0 0 3.09 11.905l1.717 6.867h-15.91l1.832-6.867a204.147 204.147 0 0 0 2.976-11.79c.992-4.196 1.944-8.278 2.86-12.246zm-117.426 6.77a16.046 16.046 0 0 1 4.494.516 16.44 16.44 0 0 1 5.518 2.615 16.519 16.519 0 0 1 4.322 4.648c.537.864.943 1.563 1.25 2.623.307 1.06.515 2.481.656 4.785.282 4.61.293 12.755.293 28.63 0 16.188-.002 24.316-.297 28.869-.147 2.276-.367 3.658-.697 4.707-.33 1.048-.77 1.763-1.356 2.705-.646 1.04-1.669 2.205-2.794 3.248-1.126 1.042-2.355 1.96-3.416 2.502-.926.472-1.87.85-2.82 1.136-.952.287-1.911.482-2.87.588a15.514 15.514 0 0 1-8.33-1.373 15.99 15.99 0 0 1-2.49-1.453 16.68 16.68 0 0 1-2.252-1.928 17.708 17.708 0 0 1-1.955-2.382c-.547-.798-.96-1.433-1.27-2.45-.31-1.017-.52-2.417-.66-4.746-.281-4.657-.288-13.029-.285-29.486.002-9.4-.005-16.406.105-21.701.056-2.648.14-4.869.27-6.746.13-1.878.307-3.413.543-4.692.236-1.278.532-2.302.906-3.152a7.582 7.582 0 0 1 1.37-2.121c.542-.593 1.177-1.1 1.921-1.608.744-.506 1.598-1.014 2.574-1.605a14.658 14.658 0 0 1 2.809-1.317 14.903 14.903 0 0 1 4.46-.812z" transform="translate(36.684 44.545)"/></svg><svg viewBox="0 0 512 512" id="auto-theme-icon-light" xmlns="http://www.w3.org/2000/svg"><path style="fill:#000;fill-opacity:.73;stroke:#000;stroke-width:1.18113;stroke-opacity:0" d="M221.478-41.985A253.13 253.13 0 0 0-31.653 211.146a253.13 253.13 0 0 0 253.13 253.131 253.13 253.13 0 0 0 253.13-253.13 253.13 253.13 0 0 0-253.13-253.132zm1.465 67.69a16.141 16.141 0 0 1 10.852 4.031 17.1 17.1 0 0 1 2.825 3.197c.567.827.992 1.451 1.307 2.452.315 1 .518 2.375.643 4.705.248 4.658.177 13.13.033 30.039-.08 9.493-.128 16.545-.276 21.851-.073 2.653-.173 4.869-.314 6.737-.14 1.867-.323 3.385-.564 4.642-.241 1.257-.542 2.252-.916 3.072a7.003 7.003 0 0 1-1.366 2.024c-.542.557-1.175 1.027-1.918 1.496-.742.47-1.593.937-2.57 1.492-.894.508-1.83.91-2.791 1.21-.96.297-1.947.493-2.943.59-.997.098-2.002.098-3.002.003s-1.997-.285-2.971-.563a16.869 16.869 0 0 1-5.459-2.703 16.413 16.413 0 0 1-2.305-2.09 16.012 16.012 0 0 1-1.894-2.545c-.473-.787-.833-1.502-1.11-2.609-.276-1.107-.467-2.607-.6-4.969-.263-4.724-.29-12.895-.29-28.256 0-16.188.002-24.316.297-28.869.147-2.276.369-3.658.699-4.707.33-1.048.77-1.763 1.355-2.705a16.317 16.317 0 0 1 2.653-3.258 15.56 15.56 0 0 1 6.818-3.763 15.945 15.945 0 0 1 3.807-.504zM101.492 75.594c.459-.002.92.02 1.382.064.924.09 1.85.272 2.772.549.921.277 1.837.648 2.742 1.117.613.317 1.79 1.238 3.383 2.613s3.604 3.204 5.883 5.34c4.556 4.273 10.187 9.773 15.71 15.313 5.524 5.54 10.94 11.12 15.065 15.554 2.063 2.218 3.803 4.148 5.072 5.645 1.27 1.496 2.07 2.558 2.25 3.037a17.237 17.237 0 0 1 1.11 5.742c.019.958-.042 1.909-.18 2.842a16.776 16.776 0 0 1-.64 2.732c-.288.886-.65 1.742-1.08 2.557-.431.815-.931 1.59-1.497 2.312a14.705 14.705 0 0 1-1.89 2 14.203 14.203 0 0 1-2.262 1.622 17.15 17.15 0 0 1-3.195 1.42c-1.12.368-2.28.631-3.446.783a17.99 17.99 0 0 1-3.482.117 15.122 15.122 0 0 1-3.303-.574c-.61-.181-1.488-.69-2.684-1.57-1.195-.88-2.71-2.131-4.59-3.798-3.76-3.332-8.985-8.324-16.072-15.324-6.31-6.233-11.091-10.97-14.72-14.677-3.63-3.709-6.108-6.39-7.813-8.516-.852-1.063-1.512-1.987-2.025-2.832-.513-.845-.88-1.61-1.149-2.354a11.78 11.78 0 0 1-.556-2.23c-.119-.762-.186-1.562-.248-2.46-.163-2.32-.159-3.867.127-5.189.142-.66.355-1.266.654-1.88.298-.615.682-1.24 1.166-1.946a22.555 22.555 0 0 1 2.072-2.6 19.333 19.333 0 0 1 2.293-2.105 16.824 16.824 0 0 1 2.469-1.6c.848-.447 1.718-.809 2.605-1.081a14.089 14.089 0 0 1 4.077-.623zm244.195.947c.368.005.731.02 1.092.049 1.44.114 2.812.416 4.029.92 1.05.434 2.122 1.105 3.154 1.935 1.033.83 2.025 1.82 2.91 2.889a20.051 20.051 0 0 1 2.274 3.37c.609 1.152 1.046 2.307 1.248 3.384.186.991.323 1.895.375 2.765.052.87.02 1.705-.135 2.557-.154.852-.429 1.72-.861 2.658-.432.937-1.023 1.942-1.805 3.068-1.564 2.253-3.9 4.988-7.295 8.618s-7.85 8.155-13.652 13.99c-5.943 5.976-11.707 11.579-16.203 15.793-4.497 4.214-7.726 7.04-8.606 7.457-.88.417-2.169.796-3.537 1.07-1.368.275-2.816.445-4.012.444a15.218 15.218 0 0 1-3.69-.452 14.861 14.861 0 0 1-3.327-1.275 15.177 15.177 0 0 1-2.887-1.982 15.682 15.682 0 0 1-2.361-2.577 16.05 16.05 0 0 1-1.752-3.054 16.236 16.236 0 0 1-1.059-3.422 16.408 16.408 0 0 1-.283-3.674c.044-1.254.232-2.53.576-3.81.24-.895.628-1.804 1.33-2.926.703-1.122 1.721-2.455 3.227-4.2 3.01-3.488 7.968-8.617 16.232-16.962 10.805-10.911 21.373-21.217 23.485-22.905 1.114-.89 2.409-1.633 3.798-2.217a19.697 19.697 0 0 1 4.375-1.255 18.946 18.946 0 0 1 3.36-.256zM221.96 125.625a87.622 87.622 0 0 1 13.356.916 85.316 85.316 0 0 1 13.137 2.99 84.632 84.632 0 0 1 12.658 5.107 88.726 88.726 0 0 1 21.346 14.988 90.56 90.56 0 0 1 11.395 13.13 91.492 91.492 0 0 1 4.731 7.379 92.545 92.545 0 0 1 4.04 7.859 93.808 93.808 0 0 1 3.308 8.299c.825 2.395 1.447 4.216 1.916 5.869.469 1.653.784 3.14.996 4.865.212 1.726.32 3.69.377 6.303.057 2.612.06 5.87.06 10.181 0 4.312-.004 7.57-.06 10.182-.056 2.612-.165 4.58-.377 6.305a30.973 30.973 0 0 1-.996 4.863c-.469 1.653-1.09 3.474-1.916 5.87a100.36 100.36 0 0 1-3.664 9.185 86.968 86.968 0 0 1-4.408 8.388 82.79 82.79 0 0 1-5.227 7.72 87.057 87.057 0 0 1-6.123 7.171c-3 3.158-6.007 5.992-9.084 8.543a86.421 86.421 0 0 1-4.676 3.62 80.102 80.102 0 0 1-9.861 6.074 83.655 83.655 0 0 1-5.281 2.515c-3.614 1.571-7.424 2.936-11.496 4.135-2.742.807-5.926 1.47-9.33 1.974-3.405.506-7.029.854-10.645 1.036a108.39 108.39 0 0 1-10.605.029c-3.38-.166-6.526-.51-9.217-1.045a94.263 94.263 0 0 1-7.77-1.887 92.22 92.22 0 0 1-7.445-2.496 90.71 90.71 0 0 1-7.1-3.074 88.594 88.594 0 0 1-18.963-12.396 87.015 87.015 0 0 1-14.947-16.533 86.562 86.562 0 0 1-10.27-19.872 87.243 87.243 0 0 1-3.92-14.707 89.297 89.297 0 0 1-1.009-7.703 91.057 91.057 0 0 1-.342-7.897c0-3.08.137-6.1.41-9.06.274-2.96.683-5.859 1.23-8.7a83.474 83.474 0 0 1 2.055-8.345 80.761 80.761 0 0 1 6.596-15.66 84.319 84.319 0 0 1 4.547-7.328 90.76 90.76 0 0 1 5.383-7.004 100.604 100.604 0 0 1 6.223-6.686 86.472 86.472 0 0 1 16.251-12.56 87.673 87.673 0 0 1 12.077-6.022 88.58 88.58 0 0 1 25.96-6.213c2.221-.187 4.45-.29 6.68-.308zm.854 31.886-2.75.018c-1.513.01-5.718.647-9.348 1.416a52.42 52.42 0 0 0-7.369 2.143 55.41 55.41 0 0 0-6.994 3.168 57.82 57.82 0 0 0-6.512 4.093 58.975 58.975 0 0 0-5.92 4.912 58.621 58.621 0 0 0-5.219 5.631 56.747 56.747 0 0 0-4.408 6.244 53.795 53.795 0 0 0-3.488 6.756 50.356 50.356 0 0 0-2.461 7.16c-.49 1.884-.858 4.164-1.103 6.64a80.354 80.354 0 0 0-.368 7.82c0 2.672.122 5.344.368 7.82.245 2.475.612 4.755 1.103 6.638a49.741 49.741 0 0 0 2.44 7.09 53.927 53.927 0 0 0 3.468 6.717 57.382 57.382 0 0 0 4.383 6.229 59.661 59.661 0 0 0 11.049 10.564 57.935 57.935 0 0 0 6.437 4.115 54.735 54.735 0 0 0 6.895 3.192 50.724 50.724 0 0 0 7.232 2.156c3.336.726 7.527 1.355 9.315 1.398l3.25.08v-112zm-143.926 39.5h32.572l3.625 2.483a17.896 17.896 0 0 1 3.127 2.748 19.3 19.3 0 0 1 2.444 3.365 17.405 17.405 0 0 1 1.591 3.69c.37 1.25.567 2.504.567 3.714 0 1.226-.221 2.53-.623 3.838a18.937 18.937 0 0 1-1.703 3.871 19.796 19.796 0 0 1-2.532 3.467c-.953 1.04-2 1.938-3.103 2.623-.857.533-1.567.939-2.62 1.248-1.052.31-2.447.524-4.673.678-4.452.308-12.23.375-27.246.467-8.525.052-16.565.009-22.653-.104-6.087-.112-10.222-.294-10.933-.517a16.087 16.087 0 0 1-2.46-1.002c-.789-.4-1.547-.863-2.265-1.38a18.05 18.05 0 0 1-3.777-3.673 17.184 17.184 0 0 1-2.504-4.537 15.276 15.276 0 0 1-.674-2.46 13.889 13.889 0 0 1-.234-2.519c0-1.225.223-2.528.625-3.837.402-1.31.983-2.624 1.703-3.872a19.786 19.786 0 0 1 2.53-3.466c.952-1.04 2.002-1.938 3.105-2.623.864-.538 1.564-.945 2.625-1.252 1.06-.307 2.484-.514 4.793-.655 4.617-.281 12.78-.295 28.693-.295zm287.926 1c15.874 0 24.02.014 28.629.295 2.304.141 3.725.348 4.785.655 1.06.307 1.76.714 2.625 1.252.91.565 1.748 1.215 2.512 1.931.763.717 1.45 1.501 2.058 2.336a17.08 17.08 0 0 1 2.649 5.485c.269.971.45 1.96.537 2.95.087.991.078 1.984-.028 2.96a13.885 13.885 0 0 1-.615 2.865 12.916 12.916 0 0 1-1.234 2.676c-.74 1.212-1.467 2.245-2.229 3.133a13.773 13.773 0 0 1-2.433 2.257 13.567 13.567 0 0 1-2.905 1.57c-1.077.432-2.28.782-3.65 1.083-1.322.29-5.48.515-11.064.67-5.585.155-12.595.24-19.622.254-7.026.014-14.07-.044-19.72-.176-5.65-.132-9.905-.339-11.358-.623a15.385 15.385 0 0 1-3.285-1.026 14.71 14.71 0 0 1-2.916-1.718 16.08 16.08 0 0 1-2.533-2.397 19.687 19.687 0 0 1-2.135-3.068 14.609 14.609 0 0 1-1.213-2.764 14.937 14.937 0 0 1-.619-2.896 15.507 15.507 0 0 1-.047-2.944 16 16 0 0 1 .5-2.902 16.282 16.282 0 0 1 2.557-5.346 15.902 15.902 0 0 1 4.473-4.16c.941-.585 1.656-1.025 2.705-1.355 1.048-.33 2.43-.552 4.707-.7 4.552-.295 12.68-.297 28.869-.297zm-25.922 68.463a63.063 63.063 0 0 1 63.064 63.063 63.063 63.063 0 0 1-63.064 63.064 63.063 63.063 0 0 1-63.063-63.064 63.063 63.063 0 0 1 63.063-63.063zm-199.71 12.924c1.14.05 2.25.22 3.321.5a15.29 15.29 0 0 1 5.83 2.97c.855.701 1.643 1.5 2.35 2.39.707.89 1.333 1.87 1.865 2.937.532 1.066.97 2.218 1.301 3.447.272 1.011.49 1.93.615 2.807.126.877.161 1.714.074 2.56a9.624 9.624 0 0 1-.662 2.62c-.366.917-.89 1.896-1.603 2.986-.713 1.09-1.615 2.293-2.74 3.658-1.126 1.366-2.475 2.894-4.08 4.637-3.212 3.486-7.45 7.83-12.981 13.437-5.543 5.62-11.084 11.052-15.543 15.276-4.46 4.223-7.838 7.238-9.06 8.025-1.634 1.052-3.053 1.768-4.493 2.22-1.439.454-2.898.643-4.61.643-1.441 0-2.826-.195-4.134-.556a15.423 15.423 0 0 1-3.676-1.553 15.991 15.991 0 0 1-3.109-2.375 16.412 16.412 0 0 1-2.434-3.021 16.208 16.208 0 0 1-1.648-3.495 15.44 15.44 0 0 1-.754-3.793 14.67 14.67 0 0 1 1.615-7.78c.318-.614 1.238-1.79 2.614-3.384 1.375-1.593 3.205-3.602 5.341-5.88 4.273-4.557 9.771-10.19 15.31-15.713 5.54-5.524 11.12-10.938 15.556-15.063 2.217-2.062 4.15-3.803 5.646-5.072 1.497-1.27 2.558-2.069 3.037-2.25a18.645 18.645 0 0 1 3.569-.965 16.897 16.897 0 0 1 3.484-.213zm189.515 10.963-23.35 74.623h17.17l4.576-17.74h22.777l4.579 17.74h17.853l-23.348-74.623h-20.257zm9.498 12.818h.459a714.7 714.7 0 0 1 2.976 12.131 266.83 266.83 0 0 0 3.09 11.905l1.717 6.867h-15.91l1.832-6.867a204.147 204.147 0 0 0 2.976-11.79c.992-4.196 1.944-8.278 2.86-12.246zm-117.426 6.77a16.046 16.046 0 0 1 4.494.516 16.44 16.44 0 0 1 5.518 2.615 16.519 16.519 0 0 1 4.322 4.648c.537.864.943 1.563 1.25 2.623.307 1.06.515 2.481.656 4.785.282 4.61.293 12.755.293 28.63 0 16.188-.002 24.316-.297 28.869-.147 2.276-.367 3.658-.697 4.707-.33 1.048-.77 1.763-1.356 2.705-.646 1.04-1.669 2.205-2.794 3.248-1.126 1.042-2.355 1.96-3.416 2.502-.926.472-1.87.85-2.82 1.136-.952.287-1.911.482-2.87.588a15.514 15.514 0 0 1-8.33-1.373 15.99 15.99 0 0 1-2.49-1.453 16.68 16.68 0 0 1-2.252-1.928 17.708 17.708 0 0 1-1.955-2.382c-.547-.798-.96-1.433-1.27-2.45-.31-1.017-.52-2.417-.66-4.746-.281-4.657-.288-13.029-.285-29.486.002-9.4-.005-16.406.105-21.701.056-2.648.14-4.869.27-6.746.13-1.878.307-3.413.543-4.692.236-1.278.532-2.302.906-3.152a7.582 7.582 0 0 1 1.37-2.121c.542-.593 1.177-1.1 1.921-1.608.744-.506 1.598-1.014 2.574-1.605a14.658 14.658 0 0 1 2.809-1.317 14.903 14.903 0 0 1 4.46-.812z" transform="translate(36.684 44.545)"/></svg><svg viewBox="0 0 24 24" id="browser-not-supported-dark" xmlns="http://www.w3.org/2000/svg"><path d="M0 0h24v24H0z" fill="none" style="opacity:.73316062"/><path d="M0 0h24v24H0z" fill="none" style="opacity:.73316062"/><path d="M19 6v10.5l1.95 1.95c.03-.15.05-.3.05-.45V6c0-1.1-.9-2-2-2H6.5l2 2zM3.86 3.95c-.35-.35-.92-.35-1.27 0s-.35.92 0 1.27l.41.42V18c0 1.1.9 2 2 2h12.36l1.42 1.42c.35.35.92.35 1.27 0s.35-.92 0-1.27zM5 18V7.64L15.36 18z" style="opacity:.73316062" fill="#fff"/></svg><svg viewBox="0 0 24 24" id="browser-not-supported-light" xmlns="http://www.w3.org/2000/svg"><path d="M0 0h24v24H0z" fill="none" style="opacity:.73316062"/><path d="M0 0h24v24H0z" fill="none" style="opacity:.73316062"/><path d="M19 6v10.5l1.95 1.95c.03-.15.05-.3.05-.45V6c0-1.1-.9-2-2-2H6.5l2 2zM3.86 3.95c-.35-.35-.92-.35-1.27 0s-.35.92 0 1.27l.41.42V18c0 1.1.9 2 2 2h12.36l1.42 1.42c.35.35.92.35 1.27 0s.35-.92 0-1.27zM5 18V7.64L15.36 18z" style="opacity:.73316062"/></svg><svg viewBox="0 0 396.279 400.59" id="call-icon-dark" xmlns="http://www.w3.org/2000/svg"><path style="fill:#fff;fill-opacity:0.732057stroke:#000000;stroke-width:1.86134;stroke-opacity:0" d="M201.232 9.773A197.208 199.364 0 0 0 4.023 209.14a197.208 199.364 0 0 0 197.21 199.363A197.208 199.364 0 0 0 398.44 209.139 197.208 199.364 0 0 0 201.232 9.773Zm-70.459 94.291c23.81.006 25.75.148 29.508 2.122 2.366 1.242 5.81 4.354 7.143 6.453 1.67 2.629 2.312 5.582 2.654 12.183.593 11.446 2.06 20.044 5.174 30.313 2.089 6.889 2.425 9.108 1.824 12.04-.772 3.765-2.496 6.284-13.217 19.311-5.638 6.852-10.35 12.693-10.472 12.983-.293.696 4.514 8.61 8.988 14.799 12.875 17.81 28.058 30.771 48.953 41.785 4.539 2.392 5.927 2.949 6.51 2.611.407-.236 6.7-4.607 13.982-9.715 7.283-5.107 14.43-9.846 15.881-10.53 2.235-1.05 3.267-1.262 6.733-1.39 3.692-.135 4.707.012 10.377 1.502 11.568 3.041 20.138 4.31 33.89 5.024 4.669.242 8.146.631 9.41 1.05 6.457 2.141 10.863 6.89 12.131 13.079.6 2.923.602 41.94.002 44.91-1.4 6.942-7.235 12.326-14.793 13.652-2.682.47-8.322.46-16.625-.033-42.907-2.55-83.867-17.12-117.597-41.83-15.501-11.356-29.943-25.446-41.366-40.358-20.394-26.624-32.902-56.511-37.392-89.345-1.146-8.375-1.829-22.612-1.242-25.885 1.336-7.463 7.03-12.938 14.89-14.316 1.404-.247 11.542-.418 24.654-.415z" transform="translate(-3.093 -8.843)"/></svg><svg viewBox="0 0 396.279 400.59" id="call-icon-light" xmlns="http://www.w3.org/2000/svg"><path style="fill:#000;fill-opacity:.73;stroke:#000;stroke-width:1.86134;stroke-opacity:0" d="M201.232 9.773A197.208 199.364 0 0 0 4.023 209.14a197.208 199.364 0 0 0 197.21 199.363A197.208 199.364 0 0 0 398.44 209.139 197.208 199.364 0 0 0 201.232 9.773Zm-70.459 94.291c23.81.006 25.75.148 29.508 2.122 2.366 1.242 5.81 4.354 7.143 6.453 1.67 2.629 2.312 5.582 2.654 12.183.593 11.446 2.06 20.044 5.174 30.313 2.089 6.889 2.425 9.108 1.824 12.04-.772 3.765-2.496 6.284-13.217 19.311-5.638 6.852-10.35 12.693-10.472 12.983-.293.696 4.514 8.61 8.988 14.799 12.875 17.81 28.058 30.771 48.953 41.785 4.539 2.392 5.927 2.949 6.51 2.611.407-.236 6.7-4.607 13.982-9.715 7.283-5.107 14.43-9.846 15.881-10.53 2.235-1.05 3.267-1.262 6.733-1.39 3.692-.135 4.707.012 10.377 1.502 11.568 3.041 20.138 4.31 33.89 5.024 4.669.242 8.146.631 9.41 1.05 6.457 2.141 10.863 6.89 12.131 13.079.6 2.923.602 41.94.002 44.91-1.4 6.942-7.235 12.326-14.793 13.652-2.682.47-8.322.46-16.625-.033-42.907-2.55-83.867-17.12-117.597-41.83-15.501-11.356-29.943-25.446-41.366-40.358-20.394-26.624-32.902-56.511-37.392-89.345-1.146-8.375-1.829-22.612-1.242-25.885 1.336-7.463 7.03-12.938 14.89-14.316 1.404-.247 11.542-.418 24.654-.415z" transform="translate(-3.093 -8.843)"/></svg><svg viewBox="0 0 47.971 47.971" style="enable-background:new 0 0 47.971 47.971" xml:space="preserve" id="close-icon-dark" xmlns="http://www.w3.org/2000/svg"><path d="M28.228 23.986 47.092 5.122a2.998 2.998 0 0 0 0-4.242 2.998 2.998 0 0 0-4.242 0L23.986 19.744 5.121.88a2.998 2.998 0 0 0-4.242 0 2.998 2.998 0 0 0 0 4.242l18.865 18.864L.879 42.85a2.998 2.998 0 1 0 4.242 4.241l18.865-18.864L42.85 47.091c.586.586 1.354.879 2.121.879s1.535-.293 2.121-.879a2.998 2.998 0 0 0 0-4.242L28.228 23.986z" fill="#d1d1d1d7"/></svg><svg viewBox="0 0 47.971 47.971" style="enable-background:new 0 0 47.971 47.971" xml:space="preserve" id="close-icon-light" xmlns="http://www.w3.org/2000/svg"><path d="M28.228 23.986 47.092 5.122a2.998 2.998 0 0 0 0-4.242 2.998 2.998 0 0 0-4.242 0L23.986 19.744 5.121.88a2.998 2.998 0 0 0-4.242 0 2.998 2.998 0 0 0 0 4.242l18.865 18.864L.879 42.85a2.998 2.998 0 1 0 4.242 4.241l18.865-18.864L42.85 47.091c.586.586 1.354.879 2.121.879s1.535-.293 2.121-.879a2.998 2.998 0 0 0 0-4.242L28.228 23.986z" fill="#000000af"/></svg><svg viewBox="0 0 425.953 425.693" id="copy-icon-dark" xmlns="http://www.w3.org/2000/svg"><path style="fill:#fff;fill-opacity:.87" d="M109.73 445.906c-27.427-5.526-52.101-26.19-62.077-51.988-6.067-15.692-5.974-13.715-5.649-120.598l.297-97.436 2.294-7.462c8.792-28.6 30.602-50.377 58.569-58.481 4.853-1.407 9.674-2.557 10.713-2.557 1.836 0 1.888 2.38 1.89 86.75.003 57.105.38 89.825 1.106 95.75 3.411 27.834 13.672 49.042 33.392 69.014 14.838 15.028 28.212 23.51 46.5 29.493 17.382 5.685 21.972 5.98 93.25 5.987 35.612.003 64.75.246 64.75.539 0 .293-1.179 2.88-2.62 5.75-8.732 17.39-25.709 33.235-43.163 40.285-15.424 6.23-9.468 5.885-105.217 6.086-68.972.145-88.884-.095-94.035-1.132zm108.535-85.007c-34.156-6.544-60.337-31.789-68.329-65.885-1.502-6.407-1.67-16.976-1.66-104.13l.011-97 2.217-8c1.219-4.4 4.548-12.659 7.398-18.353 8.708-17.396 24.849-32.389 42.965-39.909 14.685-6.095 16.614-6.238 83.856-6.238h61.042l.015 31.25c.016 35.482.476 38.866 7.16 52.75 3.364 6.985 5.717 10.123 13.209 17.615 7.492 7.493 10.63 9.845 17.616 13.209 13.885 6.686 17.264 7.144 52.786 7.16l31.286.016-.313 74.75c-.31 74.187-.33 74.805-2.557 82.065-8.81 28.706-29.977 49.933-58.702 58.866l-9 2.798-86 .189c-68.395.15-87.433-.087-93-1.153zM404.05 109.933c-10.22-3.194-18.493-10.495-23.151-20.43-2.613-5.571-2.638-5.85-2.931-32.37-.163-14.712.064-26.75.504-26.75s19.022 18.226 41.292 40.5l40.49 40.5-25.995-.066c-18.535-.048-27.205-.445-30.21-1.384z" transform="translate(-41.884 -21.384)"/></svg><svg viewBox="0 0 425.953 425.693" id="copy-icon-light" xmlns="http://www.w3.org/2000/svg"><path style="fill:#fff;fill-opacity:.87" d="M109.73 445.906c-27.427-5.526-52.101-26.19-62.077-51.988-6.067-15.692-5.974-13.715-5.649-120.598l.297-97.436 2.294-7.462c8.792-28.6 30.602-50.377 58.569-58.481 4.853-1.407 9.674-2.557 10.713-2.557 1.836 0 1.888 2.38 1.89 86.75.003 57.105.38 89.825 1.106 95.75 3.411 27.834 13.672 49.042 33.392 69.014 14.838 15.028 28.212 23.51 46.5 29.493 17.382 5.685 21.972 5.98 93.25 5.987 35.612.003 64.75.246 64.75.539 0 .293-1.179 2.88-2.62 5.75-8.732 17.39-25.709 33.235-43.163 40.285-15.424 6.23-9.468 5.885-105.217 6.086-68.972.145-88.884-.095-94.035-1.132zm108.535-85.007c-34.156-6.544-60.337-31.789-68.329-65.885-1.502-6.407-1.67-16.976-1.66-104.13l.011-97 2.217-8c1.219-4.4 4.548-12.659 7.398-18.353 8.708-17.396 24.849-32.389 42.965-39.909 14.685-6.095 16.614-6.238 83.856-6.238h61.042l.015 31.25c.016 35.482.476 38.866 7.16 52.75 3.364 6.985 5.717 10.123 13.209 17.615 7.492 7.493 10.63 9.845 17.616 13.209 13.885 6.686 17.264 7.144 52.786 7.16l31.286.016-.313 74.75c-.31 74.187-.33 74.805-2.557 82.065-8.81 28.706-29.977 49.933-58.702 58.866l-9 2.798-86 .189c-68.395.15-87.433-.087-93-1.153zM404.05 109.933c-10.22-3.194-18.493-10.495-23.151-20.43-2.613-5.571-2.638-5.85-2.931-32.37-.163-14.712.064-26.75.504-26.75s19.022 18.226 41.292 40.5l40.49 40.5-25.995-.066c-18.535-.048-27.205-.445-30.21-1.384z" transform="translate(-41.884 -21.384)"/></svg><svg viewBox="0 0 512 512" id="dark-theme-icon-dark" xmlns="http://www.w3.org/2000/svg"><path style="fill:#fff;fill-opacity:.73000002;stroke:#000;stroke-width:1.76512;stroke-opacity:0" d="M261.867 31.264A225.663 225.663 0 0 0 36.203 256.926 225.663 225.663 0 0 0 261.867 482.59a225.663 225.663 0 0 0 225.664-225.664A225.663 225.663 0 0 0 261.867 31.264zm-28.834 92.863c.757-.122.86.092.71.58-5.887 19.048-6.44 44.972-1.401 65.627 12.546 51.42 56.388 89.976 108.87 95.742 15.71 1.726 36.06.003 49.688-4.209.976-.301.86.412-.863 5.338-4.842 13.85-14.155 29.614-24.41 41.313-18.904 21.566-45.714 36.298-74.861 41.136-8.602 1.428-26.424 1.773-34.83.674-14.704-1.922-27.585-5.734-40.315-11.932-45.006-21.908-73.17-68.836-71.057-118.396 1.348-31.6 13.212-59.583 35.249-83.14 11.832-12.65 31.5-25.316 48.59-31.29 2.462-.86 3.874-1.32 4.63-1.443z"/></svg><svg viewBox="0 0 512 512" id="dark-theme-icon-light" xmlns="http://www.w3.org/2000/svg"><path style="fill:#000;fill-opacity:.73000002;stroke:#000;stroke-width:1.76512;stroke-opacity:0" d="M261.867 31.264A225.663 225.663 0 0 0 36.203 256.926 225.663 225.663 0 0 0 261.867 482.59a225.663 225.663 0 0 0 225.664-225.664A225.663 225.663 0 0 0 261.867 31.264zm-28.834 92.863c.757-.122.86.092.71.58-5.887 19.048-6.44 44.972-1.401 65.627 12.546 51.42 56.388 89.976 108.87 95.742 15.71 1.726 36.06.003 49.688-4.209.976-.301.86.412-.863 5.338-4.842 13.85-14.155 29.614-24.41 41.313-18.904 21.566-45.714 36.298-74.861 41.136-8.602 1.428-26.424 1.773-34.83.674-14.704-1.922-27.585-5.734-40.315-11.932-45.006-21.908-73.17-68.836-71.057-118.396 1.348-31.6 13.212-59.583 35.249-83.14 11.832-12.65 31.5-25.316 48.59-31.29 2.462-.86 3.874-1.32 4.63-1.443z"/></svg><svg viewBox="0 0 502.499 502.499" id="email-icon-dark" xmlns="http://www.w3.org/2000/svg"><path style="fill:#fff;fill-opacity:0.732057stroke:#000000;stroke-width:1.0463;stroke-opacity:0" d="M253.22 4.965A250.727 250.727 0 0 0 2.495 255.69a250.727 250.727 0 0 0 250.727 250.727 250.727 250.727 0 0 0 250.726-250.727A250.727 250.727 0 0 0 253.221 4.965Zm6.807 145.322c58.33 0 116.658.294 119.436.883 16.455 3.487 25.394 21.735 17.871 36.482-2.681 5.256-4.63 6.662-65.35 47.155-32.503 21.675-60.329 39.97-61.834 40.656-2.488 1.134-8.643 2.478-10.67 2.33-.451-.033-2.164-.282-3.806-.555-1.643-.272-4.229-1.063-5.746-1.758-1.518-.694-29.352-18.998-61.856-40.673-42.359-28.248-59.82-40.186-61.646-42.149-13.074-14.05-5.099-37.406 14.166-41.488 2.778-.589 61.106-.883 119.435-.883zm-139.672 59.268c.226.1 27.005 17.913 59.508 39.586 32.504 21.672 60.524 40.092 62.268 40.931 7.274 3.503 16.456 4.81 24.267 3.453 10.103-1.754 8.307-.678 72.7-43.572 32.804-21.852 59.955-39.92 60.338-40.15.56-.338.665 12.211.546 64.873l-.146 65.293-1.313 3.283c-3.596 9.001-11.213 15.256-20.302 16.674-4.482.699-232.581.65-236.934-.051-9.762-1.572-18.688-10.21-20.738-20.07-.694-3.339-.883-130.557-.194-130.25z" transform="translate(-1.971 -4.442)"/></svg><svg viewBox="0 0 502.499 502.499" id="email-icon-light" xmlns="http://www.w3.org/2000/svg"><path style="fill:#000;fill-opacity:.73;stroke:#000;stroke-width:1.0463;stroke-opacity:0" d="M253.22 4.965A250.727 250.727 0 0 0 2.495 255.69a250.727 250.727 0 0 0 250.727 250.727 250.727 250.727 0 0 0 250.726-250.727A250.727 250.727 0 0 0 253.221 4.965Zm6.807 145.322c58.33 0 116.658.294 119.436.883 16.455 3.487 25.394 21.735 17.871 36.482-2.681 5.256-4.63 6.662-65.35 47.155-32.503 21.675-60.329 39.97-61.834 40.656-2.488 1.134-8.643 2.478-10.67 2.33-.451-.033-2.164-.282-3.806-.555-1.643-.272-4.229-1.063-5.746-1.758-1.518-.694-29.352-18.998-61.856-40.673-42.359-28.248-59.82-40.186-61.646-42.149-13.074-14.05-5.099-37.406 14.166-41.488 2.778-.589 61.106-.883 119.435-.883zm-139.672 59.268c.226.1 27.005 17.913 59.508 39.586 32.504 21.672 60.524 40.092 62.268 40.931 7.274 3.503 16.456 4.81 24.267 3.453 10.103-1.754 8.307-.678 72.7-43.572 32.804-21.852 59.955-39.92 60.338-40.15.56-.338.665 12.211.546 64.873l-.146 65.293-1.313 3.283c-3.596 9.001-11.213 15.256-20.302 16.674-4.482.699-232.581.65-236.934-.051-9.762-1.572-18.688-10.21-20.738-20.07-.694-3.339-.883-130.557-.194-130.25z" transform="translate(-1.971 -4.442)"/></svg><svg viewBox="0 0 506.205 506.207" id="expand-icon-dark" xmlns="http://www.w3.org/2000/svg"><path style="fill:#fff;fill-opacity:1;stroke:#000;stroke-width:1.07053;stroke-opacity:0" d="M255.074 3.74A252.568 252.568 0 0 0 2.506 256.31a252.568 252.568 0 0 0 252.568 252.568 252.568 252.568 0 0 0 252.567-252.568A252.568 252.568 0 0 0 255.074 3.74ZM127.238 114.436h72.487l2.703 1.337c3.462 1.715 7.068 5.323 8.558 8.563 1.653 3.592 1.653 10.685 0 14.277-1.49 3.24-5.096 6.846-8.558 8.56l-2.703 1.34-25.264.16-25.264.161-.16 25.264c-.16 25.142-.166 25.275-1.408 27.771-3.147 6.326-8.126 9.68-14.887 10.031-2.784.145-4.646-.071-6.59-.767-3.428-1.227-6.416-3.497-8.32-6.32-3.16-4.688-3.033-2.948-3.033-41.965v-35.971l1.847-3.41c2.053-3.786 3.738-5.415 7.83-7.574zm179.05 0h72.483l3.407 1.845c3.702 2.008 5.954 4.46 7.83 8.524l1.205 2.613v71.943l-1.248 2.508c-3.147 6.326-8.126 9.68-14.887 10.031-2.784.145-4.644-.071-6.588-.767-3.436-1.23-6.426-3.504-8.306-6.32-3.173-4.751-3.037-3.445-3.21-30.715l-.16-25.264-25.263-.16-25.264-.16-2.705-1.34c-3.462-1.715-7.066-5.32-8.557-8.56-1.652-3.593-1.652-10.686 0-14.278 1.49-3.24 5.095-6.848 8.557-8.563zm-174.45 179.052c3.951-.004 5.032.21 7.693 1.516 3.402 1.67 6.178 4.553 8.098 8.412 1.242 2.496 1.249 2.63 1.408 27.771l.16 25.264 25.264.16 25.264.16 2.703 1.34c3.462 1.715 7.068 5.32 8.558 8.56 1.653 3.593 1.653 10.686 0 14.278-1.49 3.24-5.096 6.846-8.558 8.56l-2.703 1.34-35.163.11c-27.269.084-35.646-.047-37.324-.582-5.046-1.61-8.21-4.168-10.593-8.563l-1.846-3.406v-72.484l1.338-2.705c1.714-3.462 5.322-7.066 8.562-8.557 1.967-.904 3.58-1.17 7.139-1.174zm242.336 0c3.951-.004 5.032.21 7.693 1.516 3.402 1.67 6.178 4.553 8.098 8.412l1.248 2.508v71.943l-1.418 3.022c-1.801 3.84-4.702 6.743-8.543 8.545l-3.022 1.416-34.89.088c-19.19.048-35.62-.093-36.512-.313-4.871-1.201-9.74-5.194-11.803-9.676-.906-1.97-1.17-3.571-1.17-7.138 0-3.567.264-5.168 1.17-7.14 1.49-3.24 5.095-6.845 8.557-8.56l2.705-1.34 25.264-.16 25.263-.16.16-25.263.16-25.264 1.34-2.705c1.715-3.462 5.321-7.066 8.561-8.557 1.967-.904 3.58-1.17 7.139-1.174z" transform="translate(-1.97 -3.205)"/></svg><svg viewBox="0 0 506.205 506.207" id="expand-icon-light" xmlns="http://www.w3.org/2000/svg"><path style="fill:#fff;fill-opacity:1;stroke:#000;stroke-width:1.07053;stroke-opacity:0" d="M255.074 3.74A252.568 252.568 0 0 0 2.506 256.31a252.568 252.568 0 0 0 252.568 252.568 252.568 252.568 0 0 0 252.567-252.568A252.568 252.568 0 0 0 255.074 3.74ZM127.238 114.436h72.487l2.703 1.337c3.462 1.715 7.068 5.323 8.558 8.563 1.653 3.592 1.653 10.685 0 14.277-1.49 3.24-5.096 6.846-8.558 8.56l-2.703 1.34-25.264.16-25.264.161-.16 25.264c-.16 25.142-.166 25.275-1.408 27.771-3.147 6.326-8.126 9.68-14.887 10.031-2.784.145-4.646-.071-6.59-.767-3.428-1.227-6.416-3.497-8.32-6.32-3.16-4.688-3.033-2.948-3.033-41.965v-35.971l1.847-3.41c2.053-3.786 3.738-5.415 7.83-7.574zm179.05 0h72.483l3.407 1.845c3.702 2.008 5.954 4.46 7.83 8.524l1.205 2.613v71.943l-1.248 2.508c-3.147 6.326-8.126 9.68-14.887 10.031-2.784.145-4.644-.071-6.588-.767-3.436-1.23-6.426-3.504-8.306-6.32-3.173-4.751-3.037-3.445-3.21-30.715l-.16-25.264-25.263-.16-25.264-.16-2.705-1.34c-3.462-1.715-7.066-5.32-8.557-8.56-1.652-3.593-1.652-10.686 0-14.278 1.49-3.24 5.095-6.848 8.557-8.563zm-174.45 179.052c3.951-.004 5.032.21 7.693 1.516 3.402 1.67 6.178 4.553 8.098 8.412 1.242 2.496 1.249 2.63 1.408 27.771l.16 25.264 25.264.16 25.264.16 2.703 1.34c3.462 1.715 7.068 5.32 8.558 8.56 1.653 3.593 1.653 10.686 0 14.278-1.49 3.24-5.096 6.846-8.558 8.56l-2.703 1.34-35.163.11c-27.269.084-35.646-.047-37.324-.582-5.046-1.61-8.21-4.168-10.593-8.563l-1.846-3.406v-72.484l1.338-2.705c1.714-3.462 5.322-7.066 8.562-8.557 1.967-.904 3.58-1.17 7.139-1.174zm242.336 0c3.951-.004 5.032.21 7.693 1.516 3.402 1.67 6.178 4.553 8.098 8.412l1.248 2.508v71.943l-1.418 3.022c-1.801 3.84-4.702 6.743-8.543 8.545l-3.022 1.416-34.89.088c-19.19.048-35.62-.093-36.512-.313-4.871-1.201-9.74-5.194-11.803-9.676-.906-1.97-1.17-3.571-1.17-7.138 0-3.567.264-5.168 1.17-7.14 1.49-3.24 5.095-6.845 8.557-8.56l2.705-1.34 25.264-.16 25.263-.16.16-25.263.16-25.264 1.34-2.705c1.715-3.462 5.321-7.066 8.561-8.557 1.967-.904 3.58-1.17 7.139-1.174z" transform="translate(-1.97 -3.205)"/></svg><svg style="enable-background:new 0 0 442.04 442.04" xml:space="preserve" viewBox="0 0 442.04 442.04" id="eye-icon-dark" xmlns="http://www.w3.org/2000/svg"><path d="M221.02 341.304c-49.708 0-103.206-19.44-154.71-56.22-38.502-27.494-62.266-54.733-63.259-55.881a12.5 12.5 0 0 1 0-16.367c.993-1.146 24.756-28.387 63.259-55.881 51.505-36.777 105.003-56.219 154.71-56.219 49.708 0 103.207 19.441 154.71 56.219 38.502 27.494 62.266 54.734 63.259 55.881a12.5 12.5 0 0 1 0 16.367c-.993 1.146-24.756 28.387-63.259 55.881-51.503 36.779-105.001 56.22-154.71 56.22zM29.638 221.021c9.61 9.799 27.747 27.03 51.694 44.071 32.83 23.361 83.714 51.212 139.688 51.212s106.859-27.851 139.688-51.212c23.944-17.038 42.082-34.271 51.694-44.071-9.609-9.799-27.747-27.03-51.694-44.071-32.829-23.362-83.714-51.212-139.688-51.212s-106.858 27.85-139.688 51.212c-23.944 17.038-42.082 34.269-51.694 44.071z" style="fill:#fff;fill-opacity:.73000002"/><path d="M221.02 298.521c-42.734 0-77.5-34.767-77.5-77.5s34.766-77.5 77.5-77.5a77.436 77.436 0 0 1 51.048 19.188c5.193 4.549 5.715 12.446 1.166 17.639-4.549 5.193-12.447 5.714-17.639 1.166a52.448 52.448 0 0 0-34.576-12.993c-28.949 0-52.5 23.552-52.5 52.5s23.551 52.5 52.5 52.5c28.95 0 52.5-23.552 52.5-52.5 0-6.903 5.597-12.5 12.5-12.5s12.5 5.597 12.5 12.5c.002 42.733-34.765 77.5-77.499 77.5z" style="fill:#fff;fill-opacity:.73000002"/><path d="M221.02 246.021c-13.785 0-25-11.215-25-25s11.215-25 25-25c13.786 0 25 11.215 25 25s-11.214 25-25 25z" style="fill:#fff;fill-opacity:.73000002"/></svg><svg style="enable-background:new 0 0 442.04 442.04" xml:space="preserve" viewBox="0 0 442.04 442.04" id="eye-icon-light" xmlns="http://www.w3.org/2000/svg"><path d="M221.02 341.304c-49.708 0-103.206-19.44-154.71-56.22-38.502-27.494-62.266-54.733-63.259-55.881a12.5 12.5 0 0 1 0-16.367c.993-1.146 24.756-28.387 63.259-55.881 51.505-36.777 105.003-56.219 154.71-56.219 49.708 0 103.207 19.441 154.71 56.219 38.502 27.494 62.266 54.734 63.259 55.881a12.5 12.5 0 0 1 0 16.367c-.993 1.146-24.756 28.387-63.259 55.881-51.503 36.779-105.001 56.22-154.71 56.22zM29.638 221.021c9.61 9.799 27.747 27.03 51.694 44.071 32.83 23.361 83.714 51.212 139.688 51.212s106.859-27.851 139.688-51.212c23.944-17.038 42.082-34.271 51.694-44.071-9.609-9.799-27.747-27.03-51.694-44.071-32.829-23.362-83.714-51.212-139.688-51.212s-106.858 27.85-139.688 51.212c-23.944 17.038-42.082 34.269-51.694 44.071z" style="fill:#000;fill-opacity:.73000002"/><path d="M221.02 298.521c-42.734 0-77.5-34.767-77.5-77.5s34.766-77.5 77.5-77.5a77.436 77.436 0 0 1 51.048 19.188c5.193 4.549 5.715 12.446 1.166 17.639-4.549 5.193-12.447 5.714-17.639 1.166a52.448 52.448 0 0 0-34.576-12.993c-28.949 0-52.5 23.552-52.5 52.5s23.551 52.5 52.5 52.5c28.95 0 52.5-23.552 52.5-52.5 0-6.903 5.597-12.5 12.5-12.5s12.5 5.597 12.5 12.5c.002 42.733-34.765 77.5-77.499 77.5z" style="fill:#000;fill-opacity:.73000002"/><path d="M221.02 246.021c-13.785 0-25-11.215-25-25s11.215-25 25-25c13.786 0 25 11.215 25 25s-11.214 25-25 25z" style="fill:#000;fill-opacity:.73000002"/></svg><svg fill="#d1d1d1d7" viewBox="0 0 206.333 206.333" style="enable-background:new 0 0 206.333 206.333" xml:space="preserve" id="heart-icon-dark" xmlns="http://www.w3.org/2000/svg"><path d="M206.333 76.952c0 25.365-13.967 46.069-42.7 63.297-36.253 21.737-54.063 47.905-54.239 48.167a7.5 7.5 0 0 1-12.451.007c-.272-.403-18.283-26.613-54.243-48.174C13.967 123.021 0 102.316 0 76.952c0-30.228 19.701-62.354 56.211-62.354 24.457 0 39.282 10.829 46.956 18.941 7.674-8.113 22.499-18.941 46.956-18.941 36.51-.001 56.21 32.126 56.21 62.354z"/></svg><svg fill="#000000af" viewBox="0 0 206.333 206.333" style="enable-background:new 0 0 206.333 206.333" xml:space="preserve" id="heart-icon-light" xmlns="http://www.w3.org/2000/svg"><path d="M206.333 76.952c0 25.365-13.967 46.069-42.7 63.297-36.253 21.737-54.063 47.905-54.239 48.167a7.5 7.5 0 0 1-12.451.007c-.272-.403-18.283-26.613-54.243-48.174C13.967 123.021 0 102.316 0 76.952c0-30.228 19.701-62.354 56.211-62.354 24.457 0 39.282 10.829 46.956 18.941 7.674-8.113 22.499-18.941 46.956-18.941 36.51-.001 56.21 32.126 56.21 62.354z"/></svg><svg viewBox="0 0 20 20" id="info-icon-dark" xmlns="http://www.w3.org/2000/svg"><path d="M10 .4C4.697.4.399 4.698.399 10A9.6 9.6 0 0 0 10 19.601c5.301 0 9.6-4.298 9.6-9.601 0-5.302-4.299-9.6-9.6-9.6zm.896 3.466c.936 0 1.211.543 1.211 1.164 0 .775-.62 1.492-1.679 1.492-.886 0-1.308-.445-1.282-1.182 0-.621.519-1.474 1.75-1.474zM8.498 15.75c-.64 0-1.107-.389-.66-2.094l.733-3.025c.127-.484.148-.678 0-.678-.191 0-1.022.334-1.512.664l-.319-.523c1.555-1.299 3.343-2.061 4.108-2.061.64 0 .746.756.427 1.92l-.84 3.18c-.149.562-.085.756.064.756.192 0 .82-.232 1.438-.719l.362.486c-1.513 1.512-3.162 2.094-3.801 2.094z" fill="#d1d1d1d7"/></svg><svg viewBox="0 0 20 20" id="info-icon-light" xmlns="http://www.w3.org/2000/svg"><path d="M10 .4C4.697.4.399 4.698.399 10A9.6 9.6 0 0 0 10 19.601c5.301 0 9.6-4.298 9.6-9.601 0-5.302-4.299-9.6-9.6-9.6zm.896 3.466c.936 0 1.211.543 1.211 1.164 0 .775-.62 1.492-1.679 1.492-.886 0-1.308-.445-1.282-1.182 0-.621.519-1.474 1.75-1.474zM8.498 15.75c-.64 0-1.107-.389-.66-2.094l.733-3.025c.127-.484.148-.678 0-.678-.191 0-1.022.334-1.512.664l-.319-.523c1.555-1.299 3.343-2.061 4.108-2.061.64 0 .746.756.427 1.92l-.84 3.18c-.149.562-.085.756.064.756.192 0 .82-.232 1.438-.719l.362.486c-1.513 1.512-3.162 2.094-3.801 2.094z" fill="#000000af"/></svg><svg viewBox="0 0 512.006 512.006" style="enable-background:new 0 0 512.006 512.006" fill="#fff" xml:space="preserve" id="left-arrow-icon-dark" xmlns="http://www.w3.org/2000/svg"><path d="M388.419 475.59 168.834 256.005 388.418 36.421c8.341-8.341 8.341-21.824 0-30.165s-21.824-8.341-30.165 0L123.586 240.923c-8.341 8.341-8.341 21.824 0 30.165l234.667 234.667a21.275 21.275 0 0 0 15.083 6.251 21.277 21.277 0 0 0 15.083-6.251c8.341-8.341 8.341-21.824 0-30.165z" style="fill:#fff;fill-opacity:.73000002"/></svg><svg viewBox="0 0 512.006 512.006" style="enable-background:new 0 0 512.006 512.006" fill="#fff" xml:space="preserve" id="left-arrow-icon-light" xmlns="http://www.w3.org/2000/svg"><path d="M388.419 475.59 168.834 256.005 388.418 36.421c8.341-8.341 8.341-21.824 0-30.165s-21.824-8.341-30.165 0L123.586 240.923c-8.341 8.341-8.341 21.824 0 30.165l234.667 234.667a21.275 21.275 0 0 0 15.083 6.251 21.277 21.277 0 0 0 15.083-6.251c8.341-8.341 8.341-21.824 0-30.165z" style="fill:#000;fill-opacity:.73000002"/></svg><svg viewBox="0 0 512 512" id="light-theme-icon-dark" xmlns="http://www.w3.org/2000/svg"><path style="fill:#fff;fill-opacity:.73;stroke:#000;stroke-width:1.07857;stroke-opacity:0" d="M256.459 3.021A253.8 253.8 0 0 0 2.66 256.821 253.8 253.8 0 0 0 256.46 510.618 253.8 253.8 0 0 0 510.258 256.82 253.8 253.8 0 0 0 256.459 3.021zm-.63 65.922a16.3 16.3 0 0 1 7.583 1.78 16.444 16.444 0 0 1 3.375 2.29 17.265 17.265 0 0 1 2.854 3.23c.572.834 1.002 1.464 1.32 2.474.318 1.01.523 2.4.648 4.752.251 4.704.179 13.26.034 30.334-.082 9.586-.129 16.708-.278 22.066-.074 2.68-.176 4.917-.318 6.803-.142 1.886-.327 3.42-.57 4.69-.244 1.268-.546 2.273-.924 3.1a7.07 7.07 0 0 1-1.38 2.044c-.546.563-1.187 1.038-1.937 1.512-.75.473-1.61.945-2.595 1.505-.903.514-1.849.92-2.819 1.221-.97.301-1.966.5-2.972.598-1.006.098-2.021.097-3.032.002a16.665 16.665 0 0 1-3-.567 17.033 17.033 0 0 1-2.867-1.109 16.952 16.952 0 0 1-2.644-1.621 16.587 16.587 0 0 1-2.328-2.111 16.15 16.15 0 0 1-1.913-2.569c-.477-.795-.842-1.517-1.12-2.635-.28-1.117-.473-2.632-.606-5.017-.266-4.77-.293-13.023-.293-28.535 0-16.348 0-24.556.299-29.153.149-2.298.373-3.695.707-4.754.333-1.058.776-1.78 1.367-2.73a16.491 16.491 0 0 1 2.68-3.291 15.712 15.712 0 0 1 6.884-3.8 16.098 16.098 0 0 1 3.844-.509zm-122.645 50.38c.464-.002.93.019 1.396.064.933.09 1.869.275 2.799.554.93.28 1.855.656 2.77 1.13.618.32 1.806 1.25 3.415 2.638 1.61 1.389 3.64 3.235 5.94 5.393 4.602 4.315 10.288 9.868 15.865 15.462 5.578 5.595 11.047 11.23 15.213 15.707 2.083 2.24 3.841 4.189 5.123 5.7 1.282 1.51 2.089 2.584 2.272 3.068a17.4 17.4 0 0 1 .939 8.668 16.95 16.95 0 0 1-.648 2.76c-.291.894-.656 1.759-1.09 2.582-.435.823-.94 1.604-1.512 2.334a14.842 14.842 0 0 1-1.908 2.02c-.7.613-1.461 1.162-2.283 1.636a17.341 17.341 0 0 1-3.229 1.436c-1.13.372-2.3.637-3.478.79a18.163 18.163 0 0 1-3.516.118 15.276 15.276 0 0 1-3.336-.58c-.616-.183-1.503-.698-2.71-1.586-1.208-.889-2.737-2.152-4.636-3.834-3.797-3.365-9.074-8.406-16.23-15.475-6.373-6.295-11.2-11.078-14.865-14.822-3.665-3.745-6.167-6.452-7.89-8.6-.86-1.073-1.526-2.006-2.044-2.859a13.125 13.125 0 0 1-1.16-2.377 11.893 11.893 0 0 1-.563-2.252c-.12-.77-.186-1.576-.25-2.482-.163-2.344-.159-3.908.13-5.243a8.247 8.247 0 0 1 .66-1.898c.3-.62.689-1.253 1.177-1.965a22.768 22.768 0 0 1 2.092-2.625c.737-.792 1.513-1.5 2.316-2.125a16.997 16.997 0 0 1 2.493-1.617 15.216 15.216 0 0 1 2.63-1.092c.896-.275 1.81-.462 2.73-.556.461-.048.924-.072 1.388-.073zm246.593.954c.372.006.742.022 1.106.051 1.455.115 2.84.42 4.068.93 1.06.439 2.143 1.114 3.186 1.953a20.783 20.783 0 0 1 2.94 2.918 20.242 20.242 0 0 1 2.294 3.404c.615 1.163 1.056 2.329 1.26 3.416.188 1.002.326 1.915.379 2.793.052.879.019 1.722-.137 2.582a11.05 11.05 0 0 1-.87 2.684c-.436.946-1.032 1.96-1.821 3.097-1.58 2.275-3.939 5.038-7.368 8.704-3.429 3.665-7.925 8.234-13.785 14.127-6 6.035-11.822 11.693-16.363 15.949-4.54 4.255-7.801 7.107-8.69 7.53-.888.42-2.19.804-3.572 1.081-1.381.277-2.843.448-4.05.447a15.374 15.374 0 0 1-3.727-.455 15.014 15.014 0 0 1-3.361-1.289 15.32 15.32 0 0 1-2.914-2.002 15.84 15.84 0 0 1-2.385-2.601 16.204 16.204 0 0 1-1.77-3.084 16.39 16.39 0 0 1-1.068-3.455c-.23-1.2-.332-2.445-.287-3.711a17.12 17.12 0 0 1 .582-3.848c.243-.903.634-1.822 1.344-2.955.71-1.133 1.737-2.479 3.257-4.24 3.04-3.523 8.047-8.702 16.393-17.13 10.911-11.017 21.582-21.426 23.715-23.13 1.125-.899 2.432-1.65 3.836-2.238a19.889 19.889 0 0 1 4.418-1.268 19.106 19.106 0 0 1 3.39-.26zm-124.941 49.569a88.502 88.502 0 0 1 13.488.924 86.913 86.913 0 0 1 13.266 3.02 85.46 85.46 0 0 1 12.781 5.157 89.589 89.589 0 0 1 21.557 15.137 90.655 90.655 0 0 1 6.064 6.342 91.467 91.467 0 0 1 5.442 6.918 92.393 92.393 0 0 1 4.779 7.449 93.433 93.433 0 0 1 4.078 7.936 94.732 94.732 0 0 1 3.342 8.38c.833 2.419 1.462 4.259 1.935 5.928.474 1.67.792 3.17 1.006 4.912.215 1.743.324 3.728.381 6.365.057 2.638.06 5.927.06 10.282 0 4.354-.003 7.645-.06 10.283-.057 2.637-.166 4.622-.38 6.365a31.288 31.288 0 0 1-1.007 4.912c-.473 1.67-1.102 3.508-1.935 5.926a101.366 101.366 0 0 1-3.7 9.277 87.825 87.825 0 0 1-4.453 8.471 83.606 83.606 0 0 1-5.277 7.795 87.914 87.914 0 0 1-6.183 7.242c-3.03 3.19-6.065 6.051-9.172 8.627a87.265 87.265 0 0 1-4.723 3.654 80.945 80.945 0 0 1-9.959 6.135 84.444 84.444 0 0 1-5.332 2.54c-3.649 1.586-7.497 2.965-11.61 4.175-2.768.815-5.984 1.484-9.421 1.994-3.438.51-7.098.862-10.75 1.045-3.652.183-7.297.196-10.71.03-3.411-.168-6.589-.515-9.306-1.055a95.226 95.226 0 0 1-7.848-1.905 93.115 93.115 0 0 1-7.517-2.521 90.421 90.421 0 0 1-13.963-6.764 89.475 89.475 0 0 1-12.355-8.86 88.274 88.274 0 0 1-10.555-10.714 87.642 87.642 0 0 1-8.555-12.334 87.46 87.46 0 0 1-6.355-13.713 88.13 88.13 0 0 1-3.96-14.851 90.185 90.185 0 0 1-1.019-7.78 91.965 91.965 0 0 1-.346-7.974c0-3.112.139-6.16.415-9.149.275-2.989.689-5.916 1.242-8.785a84.301 84.301 0 0 1 2.076-8.428 81.535 81.535 0 0 1 6.66-15.814 85.156 85.156 0 0 1 4.592-7.4 91.648 91.648 0 0 1 5.435-7.073 101.586 101.586 0 0 1 6.284-6.752 87.324 87.324 0 0 1 10.656-8.924 88.072 88.072 0 0 1 11.75-7.04 89.47 89.47 0 0 1 12.576-5.113 89.671 89.671 0 0 1 6.516-1.82 89.553 89.553 0 0 1 20.07-2.453zm-144.479 72.088h32.893l3.66 2.507c1.15.788 2.211 1.73 3.158 2.776a19.472 19.472 0 0 1 2.467 3.396 17.583 17.583 0 0 1 1.608 3.727c.372 1.263.572 2.53.572 3.752 0 1.237-.223 2.553-.63 3.875a19.135 19.135 0 0 1-1.72 3.91 19.976 19.976 0 0 1-2.554 3.5c-.963 1.05-2.022 1.956-3.135 2.648-.866.539-1.582.947-2.645 1.26-1.062.313-2.473.53-4.72.686-4.496.31-12.35.377-27.514.47-8.609.053-16.728.01-22.875-.103-6.148-.114-10.323-.299-11.041-.524a16.237 16.237 0 0 1-2.483-1.011 17.327 17.327 0 0 1-2.289-1.393 18.224 18.224 0 0 1-3.814-3.709 17.35 17.35 0 0 1-2.527-4.582 15.444 15.444 0 0 1-.682-2.486 14.01 14.01 0 0 1-.236-2.541c0-1.237.225-2.555.63-3.877a19.12 19.12 0 0 1 1.721-3.908 19.992 19.992 0 0 1 2.555-3.502c.962-1.05 2.021-1.956 3.135-2.649.872-.543 1.578-.953 2.65-1.263 1.072-.31 2.51-.518 4.842-.66 4.663-.285 12.906-.3 28.974-.3zm290.756 1.01h.002c16.029 0 24.256.014 28.91.298 2.327.142 3.762.35 4.832.66 1.071.31 1.778.721 2.65 1.264a16.22 16.22 0 0 1 2.538 1.951c.77.724 1.464 1.517 2.078 2.36a17.242 17.242 0 0 1 2.674 5.537c.272.98.455 1.98.543 2.98.088 1 .08 2.003-.027 2.988a14.03 14.03 0 0 1-.622 2.895c-.31.938-.723 1.844-1.246 2.701-.746 1.225-1.482 2.268-2.252 3.164a13.901 13.901 0 0 1-2.457 2.28 13.692 13.692 0 0 1-2.931 1.585c-1.088.436-2.304.79-3.688 1.094-1.335.293-5.534.52-11.174.676-5.639.156-12.716.242-19.812.256-7.096.014-14.211-.044-19.916-.178-5.705-.133-10.002-.342-11.469-.629a15.527 15.527 0 0 1-3.316-1.035 14.861 14.861 0 0 1-2.946-1.736 16.24 16.24 0 0 1-2.558-2.42 19.865 19.865 0 0 1-2.155-3.098 14.762 14.762 0 0 1-1.226-2.79 15.091 15.091 0 0 1-.625-2.927 15.637 15.637 0 0 1-.047-2.97c.078-.99.247-1.971.506-2.932a16.442 16.442 0 0 1 2.58-5.398 16.178 16.178 0 0 1 4.518-4.202c.95-.59 1.673-1.035 2.732-1.369 1.059-.333 2.453-.556 4.752-.705 4.597-.298 12.806-.3 29.152-.3zm-61.39 78.755a9.523 9.523 0 0 1 1.277.041v-.002c.851.086 1.71.294 2.629.657.918.362 1.896.88 2.982 1.585 1.086.705 2.28 1.597 3.633 2.71 1.354 1.112 2.868 2.444 4.59 4.029 3.443 3.169 7.722 7.35 13.238 12.799 6.368 6.29 11.193 11.066 14.856 14.808 3.662 3.742 6.164 6.45 7.885 8.596.86 1.073 1.525 2.006 2.042 2.86.518.852.89 1.623 1.16 2.374.272.752.442 1.485.561 2.254.12.77.187 1.577.25 2.483.164 2.343.163 3.905-.125 5.24a8.273 8.273 0 0 1-.662 1.9c-.301.621-.689 1.251-1.178 1.963-.649.947-1.539 2.029-2.449 3.01-.91.98-1.842 1.86-2.574 2.402-.966.716-2.11 1.278-3.361 1.68a16.191 16.191 0 0 1-4.002.723c-1.391.079-2.815-.005-4.198-.256a15.6 15.6 0 0 1-3.955-1.26c-.616-.296-1.803-1.203-3.41-2.57-1.607-1.368-3.635-3.197-5.935-5.338-4.6-4.282-10.287-9.81-15.87-15.395-5.582-5.585-11.06-11.227-15.238-15.728-2.09-2.251-3.853-4.216-5.144-5.748-1.292-1.533-2.11-2.631-2.305-3.147a18.83 18.83 0 0 1-.975-3.603 17.09 17.09 0 0 1-.215-3.522c.051-1.15.223-2.27.506-3.351a15.482 15.482 0 0 1 3-5.89 15.89 15.89 0 0 1 2.412-2.372 16.916 16.916 0 0 1 2.97-1.883 18.612 18.612 0 0 1 3.478-1.312c1.017-.274 1.942-.493 2.826-.62a11.99 11.99 0 0 1 1.3-.117zm-166.457 3.432c1.15.05 2.27.22 3.351.504a15.442 15.442 0 0 1 5.889 3 15.89 15.89 0 0 1 2.373 2.412c.714.899 1.345 1.89 1.883 2.967a18.65 18.65 0 0 1 1.312 3.482c.275 1.02.496 1.948.623 2.834.127.886.162 1.731.074 2.586a9.714 9.714 0 0 1-.667 2.645c-.37.926-.9 1.914-1.62 3.015-.72 1.101-1.63 2.314-2.767 3.694-1.137 1.379-2.5 2.923-4.121 4.683-3.243 3.52-7.522 7.906-13.108 13.568-5.598 5.676-11.192 11.161-15.695 15.426-4.503 4.265-7.916 7.31-9.15 8.106-1.65 1.062-3.084 1.785-4.538 2.242-1.453.457-2.926.648-4.654.648-1.456 0-2.855-.197-4.176-.562a15.568 15.568 0 0 1-3.71-1.568 16.153 16.153 0 0 1-3.141-2.399 16.568 16.568 0 0 1-2.457-3.05 16.356 16.356 0 0 1-1.664-3.528 15.591 15.591 0 0 1-.762-3.83 14.82 14.82 0 0 1 .254-3.955c.266-1.32.718-2.632 1.377-3.905.32-.618 1.25-1.806 2.639-3.416 1.388-1.609 3.237-3.636 5.394-5.937 4.315-4.602 9.867-10.29 15.461-15.867 5.594-5.578 11.229-11.046 15.707-15.211 2.24-2.083 4.192-3.841 5.703-5.123 1.511-1.282 2.583-2.089 3.067-2.272a18.83 18.83 0 0 1 3.603-.974 17.072 17.072 0 0 1 3.52-.215zm82.386 30.851a15.908 15.908 0 0 1 4.54.518 16.692 16.692 0 0 1 9.938 7.336c.542.873.95 1.578 1.26 2.648.31 1.071.52 2.505.663 4.832.284 4.655.297 12.88.297 28.91 0 16.348-.003 24.558-.301 29.155-.15 2.298-.37 3.693-.703 4.752-.334 1.059-.778 1.781-1.37 2.732-.652 1.05-1.685 2.227-2.822 3.28-1.136 1.052-2.377 1.98-3.449 2.527-.934.477-1.889.859-2.85 1.148-.96.29-1.928.487-2.896.594a15.664 15.664 0 0 1-8.412-1.387 16.164 16.164 0 0 1-2.516-1.468 16.829 16.829 0 0 1-2.273-1.946 17.88 17.88 0 0 1-1.975-2.406c-.552-.806-.967-1.448-1.281-2.475-.314-1.026-.524-2.441-.666-4.793-.284-4.702-.292-13.156-.29-29.775.003-9.493-.003-16.566.108-21.914.056-2.674.14-4.916.272-6.813.131-1.896.31-3.447.549-4.738.238-1.291.536-2.325.914-3.183a7.65 7.65 0 0 1 1.382-2.141c.55-.599 1.19-1.111 1.942-1.623.751-.512 1.613-1.026 2.6-1.623.91-.551 1.86-.991 2.835-1.328a15.054 15.054 0 0 1 4.504-.819z"/></svg><svg viewBox="0 0 512 512" id="light-theme-icon-light" xmlns="http://www.w3.org/2000/svg"><path style="fill:#000;fill-opacity:.73;stroke:#000;stroke-width:1.07857;stroke-opacity:0" d="M256.459 3.021A253.8 253.8 0 0 0 2.66 256.821 253.8 253.8 0 0 0 256.46 510.618 253.8 253.8 0 0 0 510.258 256.82 253.8 253.8 0 0 0 256.459 3.021zm-.63 65.922a16.3 16.3 0 0 1 7.583 1.78 16.444 16.444 0 0 1 3.375 2.29 17.265 17.265 0 0 1 2.854 3.23c.572.834 1.002 1.464 1.32 2.474.318 1.01.523 2.4.648 4.752.251 4.704.179 13.26.034 30.334-.082 9.586-.129 16.708-.278 22.066-.074 2.68-.176 4.917-.318 6.803-.142 1.886-.327 3.42-.57 4.69-.244 1.268-.546 2.273-.924 3.1a7.07 7.07 0 0 1-1.38 2.044c-.546.563-1.187 1.038-1.937 1.512-.75.473-1.61.945-2.595 1.505-.903.514-1.849.92-2.819 1.221-.97.301-1.966.5-2.972.598-1.006.098-2.021.097-3.032.002a16.665 16.665 0 0 1-3-.567 17.033 17.033 0 0 1-2.867-1.109 16.952 16.952 0 0 1-2.644-1.621 16.587 16.587 0 0 1-2.328-2.111 16.15 16.15 0 0 1-1.913-2.569c-.477-.795-.842-1.517-1.12-2.635-.28-1.117-.473-2.632-.606-5.017-.266-4.77-.293-13.023-.293-28.535 0-16.348 0-24.556.299-29.153.149-2.298.373-3.695.707-4.754.333-1.058.776-1.78 1.367-2.73a16.491 16.491 0 0 1 2.68-3.291 15.712 15.712 0 0 1 6.884-3.8 16.098 16.098 0 0 1 3.844-.509zm-122.645 50.38c.464-.002.93.019 1.396.064.933.09 1.869.275 2.799.554.93.28 1.855.656 2.77 1.13.618.32 1.806 1.25 3.415 2.638 1.61 1.389 3.64 3.235 5.94 5.393 4.602 4.315 10.288 9.868 15.865 15.462 5.578 5.595 11.047 11.23 15.213 15.707 2.083 2.24 3.841 4.189 5.123 5.7 1.282 1.51 2.089 2.584 2.272 3.068a17.4 17.4 0 0 1 .939 8.668 16.95 16.95 0 0 1-.648 2.76c-.291.894-.656 1.759-1.09 2.582-.435.823-.94 1.604-1.512 2.334a14.842 14.842 0 0 1-1.908 2.02c-.7.613-1.461 1.162-2.283 1.636a17.341 17.341 0 0 1-3.229 1.436c-1.13.372-2.3.637-3.478.79a18.163 18.163 0 0 1-3.516.118 15.276 15.276 0 0 1-3.336-.58c-.616-.183-1.503-.698-2.71-1.586-1.208-.889-2.737-2.152-4.636-3.834-3.797-3.365-9.074-8.406-16.23-15.475-6.373-6.295-11.2-11.078-14.865-14.822-3.665-3.745-6.167-6.452-7.89-8.6-.86-1.073-1.526-2.006-2.044-2.859a13.125 13.125 0 0 1-1.16-2.377 11.893 11.893 0 0 1-.563-2.252c-.12-.77-.186-1.576-.25-2.482-.163-2.344-.159-3.908.13-5.243a8.247 8.247 0 0 1 .66-1.898c.3-.62.689-1.253 1.177-1.965a22.768 22.768 0 0 1 2.092-2.625c.737-.792 1.513-1.5 2.316-2.125a16.997 16.997 0 0 1 2.493-1.617 15.216 15.216 0 0 1 2.63-1.092c.896-.275 1.81-.462 2.73-.556.461-.048.924-.072 1.388-.073zm246.593.954c.372.006.742.022 1.106.051 1.455.115 2.84.42 4.068.93 1.06.439 2.143 1.114 3.186 1.953a20.783 20.783 0 0 1 2.94 2.918 20.242 20.242 0 0 1 2.294 3.404c.615 1.163 1.056 2.329 1.26 3.416.188 1.002.326 1.915.379 2.793.052.879.019 1.722-.137 2.582a11.05 11.05 0 0 1-.87 2.684c-.436.946-1.032 1.96-1.821 3.097-1.58 2.275-3.939 5.038-7.368 8.704-3.429 3.665-7.925 8.234-13.785 14.127-6 6.035-11.822 11.693-16.363 15.949-4.54 4.255-7.801 7.107-8.69 7.53-.888.42-2.19.804-3.572 1.081-1.381.277-2.843.448-4.05.447a15.374 15.374 0 0 1-3.727-.455 15.014 15.014 0 0 1-3.361-1.289 15.32 15.32 0 0 1-2.914-2.002 15.84 15.84 0 0 1-2.385-2.601 16.204 16.204 0 0 1-1.77-3.084 16.39 16.39 0 0 1-1.068-3.455c-.23-1.2-.332-2.445-.287-3.711a17.12 17.12 0 0 1 .582-3.848c.243-.903.634-1.822 1.344-2.955.71-1.133 1.737-2.479 3.257-4.24 3.04-3.523 8.047-8.702 16.393-17.13 10.911-11.017 21.582-21.426 23.715-23.13 1.125-.899 2.432-1.65 3.836-2.238a19.889 19.889 0 0 1 4.418-1.268 19.106 19.106 0 0 1 3.39-.26zm-124.941 49.569a88.502 88.502 0 0 1 13.488.924 86.913 86.913 0 0 1 13.266 3.02 85.46 85.46 0 0 1 12.781 5.157 89.589 89.589 0 0 1 21.557 15.137 90.655 90.655 0 0 1 6.064 6.342 91.467 91.467 0 0 1 5.442 6.918 92.393 92.393 0 0 1 4.779 7.449 93.433 93.433 0 0 1 4.078 7.936 94.732 94.732 0 0 1 3.342 8.38c.833 2.419 1.462 4.259 1.935 5.928.474 1.67.792 3.17 1.006 4.912.215 1.743.324 3.728.381 6.365.057 2.638.06 5.927.06 10.282 0 4.354-.003 7.645-.06 10.283-.057 2.637-.166 4.622-.38 6.365a31.288 31.288 0 0 1-1.007 4.912c-.473 1.67-1.102 3.508-1.935 5.926a101.366 101.366 0 0 1-3.7 9.277 87.825 87.825 0 0 1-4.453 8.471 83.606 83.606 0 0 1-5.277 7.795 87.914 87.914 0 0 1-6.183 7.242c-3.03 3.19-6.065 6.051-9.172 8.627a87.265 87.265 0 0 1-4.723 3.654 80.945 80.945 0 0 1-9.959 6.135 84.444 84.444 0 0 1-5.332 2.54c-3.649 1.586-7.497 2.965-11.61 4.175-2.768.815-5.984 1.484-9.421 1.994-3.438.51-7.098.862-10.75 1.045-3.652.183-7.297.196-10.71.03-3.411-.168-6.589-.515-9.306-1.055a95.226 95.226 0 0 1-7.848-1.905 93.115 93.115 0 0 1-7.517-2.521 90.421 90.421 0 0 1-13.963-6.764 89.475 89.475 0 0 1-12.355-8.86 88.274 88.274 0 0 1-10.555-10.714 87.642 87.642 0 0 1-8.555-12.334 87.46 87.46 0 0 1-6.355-13.713 88.13 88.13 0 0 1-3.96-14.851 90.185 90.185 0 0 1-1.019-7.78 91.965 91.965 0 0 1-.346-7.974c0-3.112.139-6.16.415-9.149.275-2.989.689-5.916 1.242-8.785a84.301 84.301 0 0 1 2.076-8.428 81.535 81.535 0 0 1 6.66-15.814 85.156 85.156 0 0 1 4.592-7.4 91.648 91.648 0 0 1 5.435-7.073 101.586 101.586 0 0 1 6.284-6.752 87.324 87.324 0 0 1 10.656-8.924 88.072 88.072 0 0 1 11.75-7.04 89.47 89.47 0 0 1 12.576-5.113 89.671 89.671 0 0 1 6.516-1.82 89.553 89.553 0 0 1 20.07-2.453zm-144.479 72.088h32.893l3.66 2.507c1.15.788 2.211 1.73 3.158 2.776a19.472 19.472 0 0 1 2.467 3.396 17.583 17.583 0 0 1 1.608 3.727c.372 1.263.572 2.53.572 3.752 0 1.237-.223 2.553-.63 3.875a19.135 19.135 0 0 1-1.72 3.91 19.976 19.976 0 0 1-2.554 3.5c-.963 1.05-2.022 1.956-3.135 2.648-.866.539-1.582.947-2.645 1.26-1.062.313-2.473.53-4.72.686-4.496.31-12.35.377-27.514.47-8.609.053-16.728.01-22.875-.103-6.148-.114-10.323-.299-11.041-.524a16.237 16.237 0 0 1-2.483-1.011 17.327 17.327 0 0 1-2.289-1.393 18.224 18.224 0 0 1-3.814-3.709 17.35 17.35 0 0 1-2.527-4.582 15.444 15.444 0 0 1-.682-2.486 14.01 14.01 0 0 1-.236-2.541c0-1.237.225-2.555.63-3.877a19.12 19.12 0 0 1 1.721-3.908 19.992 19.992 0 0 1 2.555-3.502c.962-1.05 2.021-1.956 3.135-2.649.872-.543 1.578-.953 2.65-1.263 1.072-.31 2.51-.518 4.842-.66 4.663-.285 12.906-.3 28.974-.3zm290.756 1.01h.002c16.029 0 24.256.014 28.91.298 2.327.142 3.762.35 4.832.66 1.071.31 1.778.721 2.65 1.264a16.22 16.22 0 0 1 2.538 1.951c.77.724 1.464 1.517 2.078 2.36a17.242 17.242 0 0 1 2.674 5.537c.272.98.455 1.98.543 2.98.088 1 .08 2.003-.027 2.988a14.03 14.03 0 0 1-.622 2.895c-.31.938-.723 1.844-1.246 2.701-.746 1.225-1.482 2.268-2.252 3.164a13.901 13.901 0 0 1-2.457 2.28 13.692 13.692 0 0 1-2.931 1.585c-1.088.436-2.304.79-3.688 1.094-1.335.293-5.534.52-11.174.676-5.639.156-12.716.242-19.812.256-7.096.014-14.211-.044-19.916-.178-5.705-.133-10.002-.342-11.469-.629a15.527 15.527 0 0 1-3.316-1.035 14.861 14.861 0 0 1-2.946-1.736 16.24 16.24 0 0 1-2.558-2.42 19.865 19.865 0 0 1-2.155-3.098 14.762 14.762 0 0 1-1.226-2.79 15.091 15.091 0 0 1-.625-2.927 15.637 15.637 0 0 1-.047-2.97c.078-.99.247-1.971.506-2.932a16.442 16.442 0 0 1 2.58-5.398 16.178 16.178 0 0 1 4.518-4.202c.95-.59 1.673-1.035 2.732-1.369 1.059-.333 2.453-.556 4.752-.705 4.597-.298 12.806-.3 29.152-.3zm-61.39 78.755a9.523 9.523 0 0 1 1.277.041v-.002c.851.086 1.71.294 2.629.657.918.362 1.896.88 2.982 1.585 1.086.705 2.28 1.597 3.633 2.71 1.354 1.112 2.868 2.444 4.59 4.029 3.443 3.169 7.722 7.35 13.238 12.799 6.368 6.29 11.193 11.066 14.856 14.808 3.662 3.742 6.164 6.45 7.885 8.596.86 1.073 1.525 2.006 2.042 2.86.518.852.89 1.623 1.16 2.374.272.752.442 1.485.561 2.254.12.77.187 1.577.25 2.483.164 2.343.163 3.905-.125 5.24a8.273 8.273 0 0 1-.662 1.9c-.301.621-.689 1.251-1.178 1.963-.649.947-1.539 2.029-2.449 3.01-.91.98-1.842 1.86-2.574 2.402-.966.716-2.11 1.278-3.361 1.68a16.191 16.191 0 0 1-4.002.723c-1.391.079-2.815-.005-4.198-.256a15.6 15.6 0 0 1-3.955-1.26c-.616-.296-1.803-1.203-3.41-2.57-1.607-1.368-3.635-3.197-5.935-5.338-4.6-4.282-10.287-9.81-15.87-15.395-5.582-5.585-11.06-11.227-15.238-15.728-2.09-2.251-3.853-4.216-5.144-5.748-1.292-1.533-2.11-2.631-2.305-3.147a18.83 18.83 0 0 1-.975-3.603 17.09 17.09 0 0 1-.215-3.522c.051-1.15.223-2.27.506-3.351a15.482 15.482 0 0 1 3-5.89 15.89 15.89 0 0 1 2.412-2.372 16.916 16.916 0 0 1 2.97-1.883 18.612 18.612 0 0 1 3.478-1.312c1.017-.274 1.942-.493 2.826-.62a11.99 11.99 0 0 1 1.3-.117zm-166.457 3.432c1.15.05 2.27.22 3.351.504a15.442 15.442 0 0 1 5.889 3 15.89 15.89 0 0 1 2.373 2.412c.714.899 1.345 1.89 1.883 2.967a18.65 18.65 0 0 1 1.312 3.482c.275 1.02.496 1.948.623 2.834.127.886.162 1.731.074 2.586a9.714 9.714 0 0 1-.667 2.645c-.37.926-.9 1.914-1.62 3.015-.72 1.101-1.63 2.314-2.767 3.694-1.137 1.379-2.5 2.923-4.121 4.683-3.243 3.52-7.522 7.906-13.108 13.568-5.598 5.676-11.192 11.161-15.695 15.426-4.503 4.265-7.916 7.31-9.15 8.106-1.65 1.062-3.084 1.785-4.538 2.242-1.453.457-2.926.648-4.654.648-1.456 0-2.855-.197-4.176-.562a15.568 15.568 0 0 1-3.71-1.568 16.153 16.153 0 0 1-3.141-2.399 16.568 16.568 0 0 1-2.457-3.05 16.356 16.356 0 0 1-1.664-3.528 15.591 15.591 0 0 1-.762-3.83 14.82 14.82 0 0 1 .254-3.955c.266-1.32.718-2.632 1.377-3.905.32-.618 1.25-1.806 2.639-3.416 1.388-1.609 3.237-3.636 5.394-5.937 4.315-4.602 9.867-10.29 15.461-15.867 5.594-5.578 11.229-11.046 15.707-15.211 2.24-2.083 4.192-3.841 5.703-5.123 1.511-1.282 2.583-2.089 3.067-2.272a18.83 18.83 0 0 1 3.603-.974 17.072 17.072 0 0 1 3.52-.215zm82.386 30.851a15.908 15.908 0 0 1 4.54.518 16.692 16.692 0 0 1 9.938 7.336c.542.873.95 1.578 1.26 2.648.31 1.071.52 2.505.663 4.832.284 4.655.297 12.88.297 28.91 0 16.348-.003 24.558-.301 29.155-.15 2.298-.37 3.693-.703 4.752-.334 1.059-.778 1.781-1.37 2.732-.652 1.05-1.685 2.227-2.822 3.28-1.136 1.052-2.377 1.98-3.449 2.527-.934.477-1.889.859-2.85 1.148-.96.29-1.928.487-2.896.594a15.664 15.664 0 0 1-8.412-1.387 16.164 16.164 0 0 1-2.516-1.468 16.829 16.829 0 0 1-2.273-1.946 17.88 17.88 0 0 1-1.975-2.406c-.552-.806-.967-1.448-1.281-2.475-.314-1.026-.524-2.441-.666-4.793-.284-4.702-.292-13.156-.29-29.775.003-9.493-.003-16.566.108-21.914.056-2.674.14-4.916.272-6.813.131-1.896.31-3.447.549-4.738.238-1.291.536-2.325.914-3.183a7.65 7.65 0 0 1 1.382-2.141c.55-.599 1.19-1.111 1.942-1.623.751-.512 1.613-1.026 2.6-1.623.91-.551 1.86-.991 2.835-1.328a15.054 15.054 0 0 1 4.504-.819z"/></svg><svg version="1.2" viewBox="0 0 24 24" id="location-icon-dark" xmlns="http://www.w3.org/2000/svg"><path style="fill:#fff;fill-opacity:.73205739;stroke:#000;stroke-width:2.2038;stroke-opacity:0" d="M12.016.152A11.865 11.865 0 0 0 .152 12.016 11.865 11.865 0 0 0 12.016 23.88 11.865 11.865 0 0 0 23.88 12.016 11.865 11.865 0 0 0 12.016.152zm.015 4.403c1.689 0 3.378.633 4.666 1.9a6.417 6.417 0 0 1 0 9.18l-4.666 4.59-4.664-4.59a6.417 6.417 0 0 1 0-9.18 6.63 6.63 0 0 1 4.664-1.9zm0 4.537c-.55 0-1.07.214-1.459.603a2.064 2.064 0 0 0 1.46 3.52 2.064 2.064 0 0 0 0-4.123z"/></svg><svg version="1.2" viewBox="0 0 24 24" id="location-icon-light" xmlns="http://www.w3.org/2000/svg"><path style="fill:#000;fill-opacity:.73205739;stroke:#000;stroke-width:2.2038;stroke-opacity:0" d="M12.016.152A11.865 11.865 0 0 0 .152 12.016 11.865 11.865 0 0 0 12.016 23.88 11.865 11.865 0 0 0 23.88 12.016 11.865 11.865 0 0 0 12.016.152zm.015 4.403c1.689 0 3.378.633 4.666 1.9a6.417 6.417 0 0 1 0 9.18l-4.666 4.59-4.664-4.59a6.417 6.417 0 0 1 0-9.18 6.63 6.63 0 0 1 4.664-1.9zm0 4.537c-.55 0-1.07.214-1.459.603a2.064 2.064 0 0 0 1.46 3.52 2.064 2.064 0 0 0 0-4.123z"/></svg><svg viewBox="0 0 170 170" id="not-found-icon-dark" xmlns="http://www.w3.org/2000/svg"><path d="M74.954 14.866a5 5 0 1 0-7.071-7.07L7.795 67.881a5.001 5.001 0 0 0 7.072 7.071l60.087-60.087Zm-5.191 49.24a36.213 36.213 0 0 0 7.986-22.732c0-4.325-.757-8.472-2.144-12.319-.959-2.658-4.4-3.369-6.398-1.37l-.172.172c-1.081 1.081-1.4 2.683-.891 4.124 1.422 4.031 1.962 8.473 1.366 13.101-1.627 12.651-11.778 22.801-24.429 24.428-4.628.595-9.069.055-13.099-1.367-1.442-.508-3.044-.19-4.124.891l-.172.172c-1.999 1.998-1.288 5.44 1.37 6.398a36.248 36.248 0 0 0 12.319 2.145 36.21 36.21 0 0 0 22.73-7.987l24.063 24.063a3.99 3.99 0 0 0 2.829 1.171 4 4 0 0 0 2.829-6.828L69.763 64.105ZM7.043 53.406a36.34 36.34 0 0 1-2.011-13.575c.777-18.73 16.071-34.024 34.8-34.8a36.322 36.322 0 0 1 13.576 2.01c2.795.981 3.651 4.505 1.557 6.6l-.033.032c-1.105 1.105-2.743 1.43-4.218.912-4.016-1.407-8.439-1.94-13.046-1.348-12.651 1.627-22.802 11.778-24.429 24.43-.592 4.606-.06 9.03 1.348 13.045.517 1.475.193 3.113-.912 4.218l-.033.033c-2.094 2.094-5.618 1.238-6.599-1.557Z" fill="#d1d1d1d7" fill-rule="evenodd"/></svg><svg viewBox="0 0 170 170" id="not-found-icon-light" xmlns="http://www.w3.org/2000/svg"><path d="M74.954 14.866a5 5 0 1 0-7.071-7.07L7.795 67.881a5.001 5.001 0 0 0 7.072 7.071l60.087-60.087Zm-5.191 49.24a36.213 36.213 0 0 0 7.986-22.732c0-4.325-.757-8.472-2.144-12.319-.959-2.658-4.4-3.369-6.398-1.37l-.172.172c-1.081 1.081-1.4 2.683-.891 4.124 1.422 4.031 1.962 8.473 1.366 13.101-1.627 12.651-11.778 22.801-24.429 24.428-4.628.595-9.069.055-13.099-1.367-1.442-.508-3.044-.19-4.124.891l-.172.172c-1.999 1.998-1.288 5.44 1.37 6.398a36.248 36.248 0 0 0 12.319 2.145 36.21 36.21 0 0 0 22.73-7.987l24.063 24.063a3.99 3.99 0 0 0 2.829 1.171 4 4 0 0 0 2.829-6.828L69.763 64.105ZM7.043 53.406a36.34 36.34 0 0 1-2.011-13.575c.777-18.73 16.071-34.024 34.8-34.8a36.322 36.322 0 0 1 13.576 2.01c2.795.981 3.651 4.505 1.557 6.6l-.033.032c-1.105 1.105-2.743 1.43-4.218.912-4.016-1.407-8.439-1.94-13.046-1.348-12.651 1.627-22.802 11.778-24.429 24.43-.592 4.606-.06 9.03 1.348 13.045.517 1.475.193 3.113-.912 4.218l-.033.033c-2.094 2.094-5.618 1.238-6.599-1.557Z" fill="#000000af" fill-rule="evenodd"/></svg><svg viewBox="0 0 330 330" style="enable-background:new 0 0 330 330" fill="#fff" xml:space="preserve" id="right-arrow-icon-dark" xmlns="http://www.w3.org/2000/svg"><path d="m250.606 154.389-150-149.996c-5.857-5.858-15.355-5.858-21.213.001-5.857 5.858-5.857 15.355.001 21.213l139.393 139.39L79.393 304.394c-5.857 5.858-5.857 15.355.001 21.213C82.322 328.536 86.161 330 90 330s7.678-1.464 10.607-4.394l149.999-150.004a14.996 14.996 0 0 0 0-21.213z" style="fill:#fff;fill-opacity:.73000002"/></svg><svg viewBox="0 0 330 330" style="enable-background:new 0 0 330 330" fill="#fff" xml:space="preserve" id="right-arrow-icon-light" xmlns="http://www.w3.org/2000/svg"><path d="m250.606 154.389-150-149.996c-5.857-5.858-15.355-5.858-21.213.001-5.857 5.858-5.857 15.355.001 21.213l139.393 139.39L79.393 304.394c-5.857 5.858-5.857 15.355.001 21.213C82.322 328.536 86.161 330 90 330s7.678-1.464 10.607-4.394l149.999-150.004a14.996 14.996 0 0 0 0-21.213z" style="fill:#000;fill-opacity:.73000002"/></svg><svg fill="#d1d1d1d7" viewBox="0 0 330 330" style="enable-background:new 0 0 330 330" xml:space="preserve" id="search-icon-dark" xmlns="http://www.w3.org/2000/svg"><path d="M325.606 304.394 223.328 202.117c16.707-21.256 26.683-48.041 26.683-77.111C250.011 56.077 193.934 0 125.005 0 56.077 0 0 56.077 0 125.006 0 193.933 56.077 250.01 125.005 250.01c29.07 0 55.855-9.975 77.11-26.681l102.278 102.277c2.929 2.93 6.768 4.394 10.607 4.394s7.678-1.464 10.606-4.394c5.859-5.857 5.859-15.355 0-21.212zM30 125.006C30 72.619 72.619 30 125.005 30c52.387 0 95.006 42.619 95.006 95.005 0 52.386-42.619 95.004-95.006 95.004C72.619 220.01 30 177.391 30 125.006z"/></svg><svg fill="#000000bb" viewBox="0 0 330 330" style="enable-background:new 0 0 330 330" xml:space="preserve" id="search-icon-light" xmlns="http://www.w3.org/2000/svg"><path d="M325.606 304.394 223.328 202.117c16.707-21.256 26.683-48.041 26.683-77.111C250.011 56.077 193.934 0 125.005 0 56.077 0 0 56.077 0 125.006 0 193.933 56.077 250.01 125.005 250.01c29.07 0 55.855-9.975 77.11-26.681l102.278 102.277c2.929 2.93 6.768 4.394 10.607 4.394s7.678-1.464 10.606-4.394c5.859-5.857 5.859-15.355 0-21.212zM30 125.006C30 72.619 72.619 30 125.005 30c52.387 0 95.006 42.619 95.006 95.005 0 52.386-42.619 95.004-95.006 95.004C72.619 220.01 30 177.391 30 125.006z"/></svg><svg viewBox="0 0 24 24" id="settings-icon-dark" xmlns="http://www.w3.org/2000/svg"><path fill="none" d="M0 0h24v24H0z"/><path fill="#d1d1d1d7" d="M5.334 4.545a9.99 9.99 0 0 1 3.542-2.048A3.993 3.993 0 0 0 12 3.999a3.993 3.993 0 0 0 3.124-1.502 9.99 9.99 0 0 1 3.542 2.048 3.993 3.993 0 0 0 .262 3.454 3.993 3.993 0 0 0 2.863 1.955 10.043 10.043 0 0 1 0 4.09c-1.16.178-2.23.86-2.863 1.955a3.993 3.993 0 0 0-.262 3.455 9.99 9.99 0 0 1-3.542 2.047A3.993 3.993 0 0 0 12 20a3.993 3.993 0 0 0-3.124 1.502 9.99 9.99 0 0 1-3.542-2.047A3.993 3.993 0 0 0 5.072 16a3.993 3.993 0 0 0-2.863-1.954 10.043 10.043 0 0 1 0-4.091A3.993 3.993 0 0 0 5.072 8a3.993 3.993 0 0 0 .262-3.454zM13.5 14.597a3 3 0 1 0-3-5.196 3 3 0 0 0 3 5.196z"/></svg><svg viewBox="0 0 24 24" id="settings-icon-light" xmlns="http://www.w3.org/2000/svg"><path fill="none" d="M0 0h24v24H0z"/><path fill="#000000af" d="M5.334 4.545a9.99 9.99 0 0 1 3.542-2.048A3.993 3.993 0 0 0 12 3.999a3.993 3.993 0 0 0 3.124-1.502 9.99 9.99 0 0 1 3.542 2.048 3.993 3.993 0 0 0 .262 3.454 3.993 3.993 0 0 0 2.863 1.955 10.043 10.043 0 0 1 0 4.09c-1.16.178-2.23.86-2.863 1.955a3.993 3.993 0 0 0-.262 3.455 9.99 9.99 0 0 1-3.542 2.047A3.993 3.993 0 0 0 12 20a3.993 3.993 0 0 0-3.124 1.502 9.99 9.99 0 0 1-3.542-2.047A3.993 3.993 0 0 0 5.072 16a3.993 3.993 0 0 0-2.863-1.954 10.043 10.043 0 0 1 0-4.091A3.993 3.993 0 0 0 5.072 8a3.993 3.993 0 0 0 .262-3.454zM13.5 14.597a3 3 0 1 0-3-5.196 3 3 0 0 0 3 5.196z"/></svg><svg viewBox="0 0 491.52 491.52" id="user-icon-dark" xmlns="http://www.w3.org/2000/svg"><path style="fill:#fff;fill-opacity:.732057;stroke:#000;stroke-width:1.04828;stroke-opacity:0" d="M247.775 2.54A245.236 245.236 0 0 0 2.54 247.774a245.236 245.236 0 0 0 245.236 245.237 245.236 245.236 0 0 0 245.237-245.237A245.236 245.236 0 0 0 247.775 2.54zm1.43 82.433c10.308-.174 20.894 1.563 30.963 5.168 21.778 7.796 41.418 27.428 49.209 49.191 9.724 27.163 5.413 56.753-11.522 79.063-14.25 18.772-35.241 30.586-58.609 32.984-7.074.726-9.15.721-16.93-.037-33.82-3.297-63.538-29.11-72.023-62.56-11.322-44.635 15.81-89.871 60.832-101.423 5.81-1.49 11.896-2.282 18.08-2.386zm-60.39 173.38c4.103-.333 6.287.372 9.667 2.506 9.012 5.689 11.89 7.3 16.971 9.51 22.693 9.867 48.665 9.866 71.397-.004 5.014-2.177 7.605-3.635 16.949-9.533 4.178-2.637 8.058-3.034 15.765-1.617 27.555 5.064 52.951 22.682 68.91 47.806 3.002 4.726 6.631 12.643 6.631 14.465 0 3.254-10.984 18.969-21.011 30.06-27.215 30.105-61.742 48.274-101.899 53.622-6.93.923-25.573 1.615-31.45 1.168-31.415-2.391-59.037-11.822-83.311-28.443-18.295-12.527-36.066-30.959-47.383-49.145-3.582-5.756-3.66-7.356-.649-13.383 5.62-11.246 11.57-19.436 20.684-28.469 14.462-14.333 34.103-24.498 53.87-27.878 1.91-.327 3.49-.553 4.858-.664z"/></svg><svg viewBox="0 0 491.52 491.52" id="user-icon-light" xmlns="http://www.w3.org/2000/svg"><path style="fill:#000;fill-opacity:.732057;stroke:#000;stroke-width:1.04828;stroke-opacity:0" d="M247.775 2.54A245.236 245.236 0 0 0 2.54 247.774a245.236 245.236 0 0 0 245.236 245.237 245.236 245.236 0 0 0 245.237-245.237A245.236 245.236 0 0 0 247.775 2.54zm1.43 82.433c10.308-.174 20.894 1.563 30.963 5.168 21.778 7.796 41.418 27.428 49.209 49.191 9.724 27.163 5.413 56.753-11.522 79.063-14.25 18.772-35.241 30.586-58.609 32.984-7.074.726-9.15.721-16.93-.037-33.82-3.297-63.538-29.11-72.023-62.56-11.322-44.635 15.81-89.871 60.832-101.423 5.81-1.49 11.896-2.282 18.08-2.386zm-60.39 173.38c4.103-.333 6.287.372 9.667 2.506 9.012 5.689 11.89 7.3 16.971 9.51 22.693 9.867 48.665 9.866 71.397-.004 5.014-2.177 7.605-3.635 16.949-9.533 4.178-2.637 8.058-3.034 15.765-1.617 27.555 5.064 52.951 22.682 68.91 47.806 3.002 4.726 6.631 12.643 6.631 14.465 0 3.254-10.984 18.969-21.011 30.06-27.215 30.105-61.742 48.274-101.899 53.622-6.93.923-25.573 1.615-31.45 1.168-31.415-2.391-59.037-11.822-83.311-28.443-18.295-12.527-36.066-30.959-47.383-49.145-3.582-5.756-3.66-7.356-.649-13.383 5.62-11.246 11.57-19.436 20.684-28.469 14.462-14.333 34.103-24.498 53.87-27.878 1.91-.327 3.49-.553 4.858-.664z"/></svg></svg>